<?xml version="1.0" encoding="UTF-8"?>
<svg id="a" xmlns="http://www.w3.org/2000/svg" viewBox="0 0 716.94 1044.92">
  <defs>
    <style>
      .b {
        fill: #fec220;
      }

      .c {
        fill: #fcb717;
      }
    </style>
  </defs>
  <path class="b" d="M690.01,223.03l-.23,1.41c38.72,96.15,34.15,204.94-1.69,300.46-1.24,4.81-2.99,9.08-5.26,12.79.35.29.61.56.56.73-1.28,4.01-4.24,11.61-6.29,15.12-.13.22-.56.26-1.07.25-1.81,2.76-3.21,5.74-4.19,8.95,1.46.82.42,3.38-1.01,3.93-2.18,2.15-4.6,6.29-4.56,9.24,1.03,1.01-1.42,5.55-3.08,5.73-10.26,18.15-15.39,27.23-15.39,27.23-3.14,1.18-4.08-1.81-4.51-4.49l-2.74-.22c3.42,11.11-4.04,12.67-12.12,6.49-6.36,13.69-9.42,2.86-10.01-6.16-2.8,5.28-10.35-.98-10-5.2,54.67-75.98,77.83-161.67,74.95-252.6-4.85-153.03-119.02-285.69-271.14-311.15-19.15-3.2-41.37-6.13-60.22-3.6-4.97-1.91-9.86-1.52-14.88,0-46.62,1.48-94.5,16.28-135.16,38.79-48.86,27.05-86.42,64.25-116.61,111.16-50.79,78.93-61.37,172.48-44.12,261.68,12.34,56.54,37.36,112.7,69.94,159.62l4.07,8.04c2.76,2.25,4.07,4.75,3.94,7.5,15.12,10.64-1.27,15.51-7.15,1.8l-4.12-4.67c-3.43,4.39-10.89,2.51-11.54-3.34l-3.92-2.02c-4.18,4.81-10.34,2.07-7.78-4.21l-2.67-3.76c-3.51,1.27-7.28,2.2-11.32,2.8-2.47-1.88-4.77-4.12-6.91-6.71-1.77-.53-4.3-5.39-1.81-5.7-1.06-2.75-2.41-5.38-4.03-7.89-2.22.2-3.75-3.02-3.07-5.04-.78-4.34-2.53-8.43-5.24-12.25l-1.52.06c-5.46-11.08-10.46-22.46-14.82-33.94-.08-.22.24-.59.68-1-2.59-4.47-4.82-9.83-6.72-15.13C2.88,449.65-6.53,377.01,4.72,305.69c9.69-61.45,32.43-109.2,66.79-160.34.19-.28.39-1.11.12-1.57,12.16-16.29,30.68-37.56,45.93-51.47l12.1-11.05c32.42-27.13,68.81-47.97,108.98-61.81,28.77-9.92,57.86-16.64,88.19-18.74l10.17-.71,39.58.18c49.77,2.96,98.13,14.59,142.74,37.08,28.12,14.17,53.87,30.8,77.11,51.93l27.55,27.5c21.67,23.65,39.51,49.82,53.09,78.76l12.94,27.56v.02Z"/>
  <path class="c" d="M454.43,821.03l4.28-1.44c3.21,1.74,2.77,5.21-1.32,10.43l1.89,1.63c4.55-1.3,9.84-1.08,12.79,3.08,10.13-4.4,10.42,10.73,2.31,11.87,1.49,3.33,3.79,3.99,6.91,1.97,5.39-4.48,8.83-3.97,14.82-.84,4.46-3.23,11.12-8.87,11.93-14.64,3.6-1.81,5.42-4.99,5.46-9.54,6.52-2.52,9.48-8.84,11.5-15.08,15.36-20.58,29.22-42.33,43.02-64.01,31.13-48.88,59.76-99.23,88.41-149.63,1.39-4.76,3.4-9.5,6.76-13.23l3.08-5.73c-.47-2.2,2.45-7.17,4.56-9.24.51-1.03,1-2.76,1.01-3.93.95-3.22,2.35-6.21,4.19-8.95l6.8-16.09c.9-1.72,1.62-1.4,1.47.58l-3.85,9.91-12.03,27.15-23.39,46.61c-20.53,38.17-41.89,74.94-65.46,111.42l-58.45,90.44-21.99,33.25-36.76,55.23-79.51,118.1c-5.37,7.98-12.48,13.62-21.79,14.44-8.24.73-16.11-1.54-20.96-8.45l-37.49-53.41-71.89-107.87-27.09-41.11-43.09-66.99c-31.16-48.44-60.66-97.04-88.05-147.66l-23.37-46.76c-6.8-13.6-12.4-26.98-17.76-40.93-.96-4.96,1.91-2.36,2.62,1.18v.04s7.98,18.88,7.98,18.88c2.4,5.67,4.02,11.65,7.68,16,2.76,3.84,4.5,7.92,5.24,12.25.83,1.78,1.62,3.69,3.07,5.04,1.7,2.48,3.05,5.11,4.03,7.89-.76,1.89.95,4.07,1.81,5.7,2.08,1.85,3.94,3.93,5.57,6.26,13.44,25.84,27.89,51.17,42.87,76.2,23.4,39.08,47.89,78.83,74.24,116.23,3.01,6.14,6.77,11.9,11.26,17.29-.76,3.32,12.6,17.19,13.67,17.55,4.55-1.39,10.06-1.25,14.19,1.22,3.25-1.6,6.94-2.28,11.07-2.06-5.81-2.39-4.53-8.37,1.17-9.7-.03-10.16,8.59-5.34,13.27-.48l.51-38.49c-.25-4.02.9-6.48,3.47-7.37l-.14-32.17"/>
  <path class="c" d="M516.8,749.42,458.74,819.46,255.1,775.27c-2.64,7.63-1.23,16.02-1.39,24.2l-.43,21.08c-.02,1.08-.98,3.05-1.83,3.26-2.01.48-5.14-7.04-10.88-6.1-1.04.17-.93,2.73.17,4.08.32.39.15.97-.33,1.12l-3.66,1.13c-1.13.35-2.85,2.93-1.25,4.34,1,.89,3.37.96,3.21,2.82-.37,4.25-7.21.64-12.62,3.85-.19.11-.42.14-.62.05-4.16-1.71-9.3-2.7-14.18-.81-.27.11-.58.04-.78-.18l-7.87-8.74c-.05-.05-.1-.1-.17-.13-3.85-2.21-5.53-4.66-6.03-8.93-.01-.12-.06-.23-.13-.33l-5.16-7.13c-2.88-3.98-4.83-5.98-6.38-10.52-.02-.07-.06-.13-.1-.19l-7.75-10.32-6.62-9.52s-.03-.05-.04-.07l-4.14-7.8s-.04-.07-.07-.1c-7.86-9.94-13.17-21.05-20.25-31.46l-7.33-10.78s-.02-.03-.03-.05l-5.04-8.79s-.01-.02-.02-.03l-7.93-12.17-14.93-24.95-20.61-35.23-11.07-19.81-14.21-26.85c-.33-.62.36-1.3.97-.95,1.76,1.02,3.19,2.94,4.83,4.03.22.15.51.13.74,0,1.77-.98,4.34-1.24,6.42-1.08,1.4.1,4.23-3.01,5.93-.84,1.1,1.4,2.14,4.93,5.03,3.74,1.16-.48,1.55,0,2.03.32,2.67,1.8-4.02.5-4.52,2.73s.27,2.82,2.36,2.86,2.14-3.73,3.79-2.88l6.3,3.25c.27.14.41.44.37.74-.17,1.24-.01,2.15.26,2.81.36.88,6.39,2.2,6.77.39l.61-2.82c.13-.62.96-.76,1.29-.22,1.88,3.12,4.16,4.72,6.16,7.51,1.96,2.74,4.02,8.02,8.93,7.24,3.28-.52-1.51-3.7-5.22-7.34-.16-.15-.22-.37-.2-.59.36-3.58-3.06-5-4.19-7.24l-3.79-7.55s-.03-.06-.06-.09l-8.99-12.68s-.02-.04-.04-.06l-6.94-12.07c-16.44-28.6-30.76-57.61-41.16-88.99-5.41-16.32-11.05-31.66-13.38-48.64l-6.74-49.21s0-.05,0-.07l-.54-17.63c-.08-2.73-.05-4.51,0-7.2l.55-29.8c.07-3.81.32-7.29.85-11.19l1.88-14c3.24-24.15,8.41-45.29,17.13-67.95l5.31-13.79c3.97-10.31,9.42-18.81,10.5-23.18.74-2.99,3.3-4.92,4.59-7.41,14.2-27.38,39.43-62.24,61.81-82.04l10.77-9.53c13.33-11.8,27.15-22.14,42.38-31.54l8.67-5.34c9.01-5.56,22.87-12.54,32.57-16.44l23.56-9.47c6.23-2.5,12.17-3.83,18.64-5.5,14.34-3.69,28.26-6.73,43.06-8.71l9.9-1.32c4.34-.58,8.47-1.25,13.01-.49.1.02.2.01.3-.02,4.87-1.44,9.79-2.03,14.64-.01.16.07.34.07.5.01,6.84-2.52,13.7-.68,20.6-.43,81.48,3.01,163.81,39.31,219.56,98.88,40.87,43.68,69.89,96.15,83.89,154.28,3.62,15.05,6.73,29.62,7.77,45.1l1.26,18.8c.58,8.61.46,19.49.17,28.59l-.55,17.54s0,.03,0,.05l-2.28,23s0,.02,0,.04l-4.11,26.85s0,.04-.01.06l-9.39,38.34s-.01.05-.02.07l-14.86,41.3c-10.22,24.41-23.66,46.58-37.96,68.79-2.05,3.17-2.71,6.3-6.04,8.89-.4.31-.35.93.09,1.17,1.97,1.1,2.99,2.24,4.24,3.56.34.36.97.29,1.17-.16.8-1.84,3.45-3.27,4.18-2.22,2.18,5.03.9,11.43,1.92,11.93l1.68.83c.44.22.96-.07,1.01-.56.26-2.37,1.7-4.29,3.3-6.8.28-.43.92-.45,1.18-.01,2.11,3.41,7.71,5.1,8.8,4.42,3.77-2.34.38-4.24.38-9.38,0-.41.32-.74.73-.73l5.15.16c.2,0,.4.08.51.25.66.91.8,2.67,1.3,4.22.18.55.91.67,1.25.2l8.76-12.06c.07-.09.11-.2.12-.32.65-5.31,2.99-10.39,7.11-12.91v-.06s-6.87,14.43-6.87,14.43l-7.67,15.57-9.91,17.98-22.34,39.79-8.91,14.94-15.95,26.01-21.83,35.21-13.38,20.62-18.13,27.79-3.89,5.34-7.46,9.94c-.05.07-.08.14-.11.21-1.79,6.08-6.14,13.97-11.38,15.09-.34.07-.55.41-.52.76.34,4.06-1.28,7.38-4.89,8.66-.3.11-.49.38-.48.7.08,4.26-2.65,5.81-5.48,8.35-2.19,1.95-4.02,6.8-8.02,6.69-.08,0-.17-.02-.25-.05l-7.38-2.77c-.21-.08-.44-.05-.62.06l-5.01,3.13c-2,1.25-3.78.78-5.41,2.69-.35.41-1.01.28-1.19-.22-.77-2.22-2.99-3.65-4.03-5.75-.91-1.85,2.12-2.39,3.53-2.11.24.05.5-.03.66-.22,1.69-2.04,1.8-5.55,1.32-8.16-.07-.39-.43-.65-.82-.58-2.17.4-3.4,1.04-4.66,1.85-.37.24-.87.07-1.03-.34-1.97-5.12-7.7-4.51-11.94-3.59-.8.17-2.27-1.9-3.06-2.03-.63-.1-1.63.65-2.41,1.2-.42.3-1.06.06-1.1-.45M218.39,791.64,258.52,779.56c-.16-.09-.28-.23-.33-.4l-.65-2.03c-.03-.08-.04-.16-.04-.25.06-2.13.82-4.26.77-7.18M301.05,798.09c-.24-.25-.62-.3-.91-.1l-1.42.96s-.02.02-.03.02l-1.38,1.05M33.94,351.73c-.67.1-1.05.85-1.05,1.93v21.13c0,.94.29,1.63.81,2.13.15.14.25.32.25.53l.34,16.93s0,.04,0,.06c2.63,26.42,5.77,52.58,13.99,77.98l6.62,20.46,7.99,21.09c14.4,35.2,32.97,67.75,54.66,99.13,17.06,24.69,34.55,48.24,55.03,69.85l7.87,8.3s.02.02.04.03l7.76,7.11s.03.03.04.04c9.09,10.02,19.26,18.35,31.3,24.62,14.43,7.51,25.79,9.26,41.39,1.48,45.34-22.6,90.66-43.87,137.73-62.91,23.57-9.53,46.25-17.75,70.28-25.9,40.21-13.64,80.56-24.15,121.83-33.92l18.67-5.24c.15-.04.29-.14.38-.27,28.02-38.3,48.35-81.04,60.59-126.94,6.14-23.03,10.77-45.43,12.03-69.02l.91-17.12.21-35.37s0-.04,0-.05l-.7-10.19c-5.16-75.77-36.42-146.54-87.02-202.81l-20.41-20.67-6.87-6.28c-56.52-47.08-122.43-73.01-196.05-76.66l-30.55-.1s-.03,0-.04,0l-11.21.61c-44.98,3.42-88.18,16.43-127.64,38.13-21.02,11.56-39.98,24.4-57.75,40.43l-27.91,27.94c-13.26,14.63-24.39,29.7-34.65,46.53-27.6,45.27-44.61,95.2-48.54,148.14,0,.01,0,.03,0,.04l-.37,18.82.02.02ZM598.25,603.96c.28-1.37-1.61-1.77-2.61-1.02s-1.34,1.47-.6,3.17c.32.74,2.73.22,3.21-2.14h0ZM577.39,610.56c4.95.03,9.07.46,13.14-2.53.47-.35.34-1.09-.22-1.26-5.05-1.58-10.56-.96-15.27,1.21-.27.12-.44.41-.41.7.21,2,1.1,2.15,2.75,1.88h0ZM616.1,609.98c.38.63,1.93.7,2.29-.56.15-.52.87-1.28.13-1.92-.33-.29-.76-.54-1.31-.59s-.91.51-.69.99c.25.56.17,1.28-.42,2.08h0ZM76.26,613.54c1.27-1.81-2.34-5.43-3.66-4.54-1.57,1.05-.69,3.09.38,4.01.69.59,2.05,2.3,3.28.53h0ZM247.08,772.27l-11.8-6.74c1.74,4.16,7.12,6.75,11.8,6.74ZM498.68,775.96,496.33,780.67c1.05.38,2.12.02,2.26-.36M491.9,786.43c1.72-.3,2.29-1.23,2.41-2.46.06-.6-.64-.97-1.13-.62-.74.55-1.43,1.24-1.97,1.96-.37.5.07,1.22.69,1.12ZM479.94,799.22l-5.5,5.5c-.28.28-.28.72,0,1h0c.28.28.72.28,1,0l5.5-5.5c.28-.28.28-.72,0-1h0c-.28-.28-.72-.28-1,0ZM470.71,809.93l-7.75,7.36c3.39,1.16,5.13-2.31,7.75-7.36ZM494.39,835.6c-.42-.22-1.6,0-2.31.45-1.95,1.23-2.26,3.71-2.01,5.97.03.3.27.54.56.61,1.2.27,2.36.18,3.05-.76,1.04-1.45,1.66-5.78.72-6.27h0Z"/>
  <path class="b" d="M577.39,610.56c-1.78.28-2.67.1-2.79-2.37,5.18-2.52,11.42-3.15,16.95-.98-4.41,3.89-8.8,3.38-14.16,3.35h0Z"/>
  <path class="c" d="M494.39,835.6c.94.49.32,4.82-.72,6.27-.77,1.07-2.18,1.04-3.55.63-.33-2.38-.14-5.13,1.95-6.45.71-.45,1.9-.67,2.31-.45h0Z"/>
  <g>
    <path class="c" d="M516.69,749.53h0l9.27-12.7"/>
    <path class="b" d="M510.77,648.16l-16.29,5.07c4.99-2.74,10.81-4.15,16.29-5.07Z"/>
    <path class="c" d="M247.08,772.27c-4.68,0-10.05-2.58-11.8-6.74l11.8,6.74Z"/>
    <path class="c" d="M470.71,809.93c-2.62,5.05-4.35,8.52-7.75,7.36l7.75-7.36Z"/>
    <rect class="c" x="473.09" y="801.78" width="9.19" height="1.41" transform="translate(-427.53 572.82) rotate(-45)"/>
    <path class="c" d="M498.62,780.31h-.01c-.18.48-1.83.94-3.06-.1"/>
    <path class="c" d="M490.47,786.54c.7-1.49,2.25-3.11,3.84-3.87.15,2.18-.21,3.89-3.84,3.87Z"/>
  </g>
  <g>
    <path d="M393.03,260.5c1.69.65,3.35,1.35,5,2.09.72-.23,1.43-.41,2.16-.47,3.82-.28,14.56,7.59,18.26,10.45,7.1,5.5,28.35,27.29,27.74,35.55-.05.73-.24,1.45-.47,2.16.72,1.6,1.4,3.22,2.04,4.86.69.39,1.36.81,1.93,1.34,6.43,5.89,6.94,35.8,5.79,45.11-.6,4.84-2.49,17.56-5.47,20.35-.57.53-1.23.96-1.91,1.36-.71,1.9-1.49,3.77-2.32,5.62.23.72.41,1.44.47,2.17.29,3.84-7.6,14.61-10.47,18.32-5.52,7.13-27.36,28.43-35.65,27.81-.73-.05-1.45-.24-2.17-.47-1.92.87-3.87,1.67-5.84,2.41-.4.69-.84,1.35-1.37,1.91-2.82,3-15.6,4.85-20.47,5.44-9.38,1.13-39.4.48-45.31-6.02-.52-.58-.94-1.24-1.34-1.94-1.69-.67-3.37-1.38-5.02-2.15-.71.22-1.43.41-2.15.46-3.77.27-14.38-7.61-18.01-10.46-6.97-5.47-28-27.19-27.35-35.3.06-.72.25-1.44.48-2.15-.85-1.89-1.64-3.8-2.37-5.74-.69-.4-1.34-.82-1.91-1.35-6.34-5.91-6.56-35.77-5.33-45.03.64-4.82,2.63-17.49,5.63-20.24.57-.52,1.23-.94,1.92-1.33.41-1.07.84-2.13,1.29-3.18-.63-3.92.59-7.81,3.64-11.67,4.27-10.45,33.13-39.28,43-38.44.72.06,1.43.25,2.14.49,1.04-.46,2.08-.91,3.13-1.34.39-.7.8-1.37,1.32-1.95,2.92-3.28,17.08-5.61,22.25-6.28,9.39-1.21,39.43-.79,45.41,5.68.53.57.95,1.24,1.35,1.93h-.02Z"/>
    <path class="c" d="M318.59,436.4c.66,2.21-1.4,4.42-2.73,7.33-16.8,36.65-42.66,67.94-80.42,83.35-9.49,3.87-18.45,4.66-28.48,4.9-16.91.39-31.38-11.16-31.53-28.88-.41-49.83,49.41-97.61,96.13-114.15,9.46,20.96,26.16,37.81,47.04,47.45h-.01Z"/>
    <path class="c" d="M397.94,436.75c21.24-9.58,38.24-26.59,47.82-47.83,2.02,2.38,4.23,2.64,6.48,3.57,25.9,10.7,48.63,27.08,65.53,49.3,11.25,14.79,19.28,30.52,22.38,48.87,2.02,11.96.56,24.4-8.06,33.08-11.89,11.98-35.46,9.11-51.91,2.56-38.33-15.26-68-52.06-82.23-89.55h0Z"/>
    <path class="c" d="M448.08,383.3c8.27-21.99,8.16-46.25-.33-68.15,17.81-6.88,34.96-11.84,53.46-13h31.45c27.38,2.48,74.61,15.5,75.86,45.2.38,9.09-5.07,17.03-11.8,23.17-16.5,15.06-44.48,22.9-67.06,24.77h-30.43c-17.68-1.42-34.32-5.33-51.15-11.99h0Z"/>
    <path class="c" d="M269.5,315.26c-8.43,21.85-8.54,46.03-.32,67.95-17.08,5.84-33.04,10.96-50.37,12.15l-29.58-.05c-14.44-1.2-28.11-4.4-41.55-9.27-10.66-3.86-19.74-9.5-28.06-17-9.45-8.51-12.98-21.04-7.08-33.13,10.49-21.49,47.04-31.72,71.69-33.73h33.43c15.9,1.13,30.87,5.6,45.55,11.16,1.87.71,3.16,1.75,6.29,1.92h0Z"/>
    <path class="c" d="M392.1,439.16c6.42,14.37,11.32,30.27,11.33,47.04l.03,36.2c-1.9,23.17-10.61,55.55-29.05,68.7-11.51,8.21-25.97,7.16-36.08-2.92-17.96-17.89-24.32-47.48-25.95-72.81l-.11-23.57.82-11.14,4.01-22.88,6.52-19.23c21.97,8.66,46.37,8.87,68.49.61h0Z"/>
    <path class="c" d="M445.71,310.29c-9.57-21.17-26.52-38.12-47.69-47.69,6.12-19.18,16.65-36.79,30.39-52.4l18.56-18.4c12.39-10.5,25.62-18.98,41.08-23.87,6.33-2,12.32-2.22,18.87-2.36,14.25-.3,26.06,9.23,27.62,23.59,1.33,12.23-.02,24.23-4.3,35.98-5.93,16.24-14.41,31.03-26.1,43.78-16.36,17.85-35.61,31.7-58.44,41.38h0Z"/>
    <path class="c" d="M319.57,262.46c-21.92,9.82-39.33,27.54-48.78,49.63-.75-1.53-1.28-2.83-2.78-3.49-36.93-16.22-71.24-49.19-82.89-87.97-2.63-8.75-3.22-16.88-3.41-25.92-.28-13.17,6.83-24.85,20.4-27.97,22.7-5.23,45.24,6.86,63.51,21.43,23.16,18.47,40.63,42.7,51.46,70.32.78,1.98.98,3.54,2.49,3.97h0Z"/>
    <path class="c" d="M393.03,260.5c-22.67-8.74-47.82-8.52-70.33.62-1.78-13.95-9.37-32.11-9.34-47.69l.05-33.4c2-22.55,7.82-47.46,22.19-64.54,11.24-13.37,30.56-15.12,43.12-2.22,19.89,20.43,26.51,64.74,24.84,93.99-1.07,18.73-4.44,36.35-10.52,53.25h0Z"/>
  </g>
</svg>