<?xml version="1.0" encoding="UTF-8"?>
<svg id="a" data-name="Layer 1" xmlns="http://www.w3.org/2000/svg" viewBox="0 0 1119.16 949.18">
  <defs>
    <style>
      .b {
        fill: #201d1d;
      }

      .c {
        fill: #d62626;
      }

      .d {
        fill: #a01318;
      }

      .e {
        fill: #012337;
      }

      .f {
        fill: #7b0b12;
      }

      .g {
        fill: #053c5c;
      }

      .h {
        fill: #185a7b;
      }

      .i {
        fill: #9f1317;
      }

      .j {
        fill: #b14518;
      }

      .k {
        fill: #f6ae0a;
      }

      .l {
        fill: #01273c;
      }

      .m {
        fill: #194b66;
      }

      .n {
        fill: #02263c;
      }

      .o {
        fill: #042b43;
      }

      .p {
        fill: #f5ad0d;
      }

      .q {
        fill: #cacaca;
      }

      .r {
        fill: #010101;
      }

      .s {
        fill: #02283d;
      }

      .t {
        fill: #8b8b8b;
      }

      .u {
        fill: #840d0c;
      }

      .v {
        fill: #07314b;
      }

      .w {
        fill: #21201f;
      }

      .x {
        fill: #4c4b4c;
      }

      .y {
        fill: #bd1212;
      }

      .z {
        fill: #4680a1;
      }

      .aa {
        fill: #040505;
      }

      .ab {
        fill: #4b4031;
      }

      .ac {
        fill: #053651;
      }

      .ad {
        fill: #fcfcfc;
      }

      .ae {
        fill: #2c6a8e;
      }

      .af {
        fill: #eeedec;
      }

      .ag {
        fill: #022940;
      }

      .ah {
        fill: #f4ac0c;
      }

      .ai {
        fill: #f6f8fa;
      }

      .aj {
        fill: #f7ae0b;
      }

      .ak {
        fill: #02334f;
      }

      .al {
        fill: #919190;
      }

      .am {
        fill: #333334;
      }

      .an {
        fill: #b6b4b5;
      }

      .ao {
        fill: #080808;
      }

      .ap {
        fill: #01263d;
      }

      .aq {
        fill: #1c4d69;
      }

      .ar {
        fill: #0c0c0c;
      }

      .as {
        fill: #730807;
      }

      .at {
        fill: #174d6a;
      }

      .au {
        fill: #020202;
      }

      .av {
        fill: #174f71;
      }

      .aw {
        fill: #05283c;
      }

      .ax {
        fill: #b3acac;
      }

      .ay {
        fill: #012234;
      }

      .az {
        fill: #04273b;
      }

      .ba {
        fill: #af3334;
      }

      .bb {
        fill: #f4ab0b;
      }

      .bc {
        fill: #6fa8c1;
      }

      .bd {
        fill: #050403;
      }

      .be {
        fill: #022031;
      }

      .bf {
        fill: #1c4c66;
      }

      .bg {
        fill: #365570;
      }

      .bh {
        fill: #1e608a;
      }

      .bi {
        fill: #8d939e;
      }

      .bj {
        fill: #a60e0f;
      }

      .bk {
        fill: #706451;
      }

      .bl {
        fill: #7b0908;
      }

      .bm {
        fill: #f5ae0c;
      }

      .bn {
        fill: #090808;
      }

      .bo {
        fill: #64849c;
      }

      .bp {
        fill: #d47c79;
      }

      .bq {
        fill: #d13f3e;
      }

      .br {
        fill: #032840;
      }

      .bs {
        fill: #b0b0b1;
      }

      .bt {
        fill: #01263c;
      }

      .bu {
        fill: #22506a;
      }

      .bv {
        fill: #171717;
      }

      .bw {
        fill: #02283c;
      }

      .bx {
        fill: #a7090c;
      }

      .by {
        fill: #5898bd;
      }

      .bz {
        fill: #2d3d4f;
      }

      .ca {
        fill: #ad0e0f;
      }

      .cb {
        fill: #063f5f;
      }

      .cc {
        fill: #1f1d1a;
      }

      .cd {
        fill: #02090e;
      }

      .ce {
        fill: #e14f4c;
      }

      .cf {
        fill: #72ac70;
      }

      .cg {
        fill: #484747;
      }

      .ch {
        fill: #1a6893;
      }

      .ci {
        fill: #43413c;
      }

      .cj {
        fill: #cdcdd1;
      }

      .ck {
        fill: #012b43;
      }

      .cl {
        fill: #296b92;
      }

      .cm {
        fill: #f7ae0a;
      }

      .cn {
        fill: #bebdbc;
      }

      .co {
        fill: #15587c;
      }

      .cp {
        fill: #063d5c;
      }

      .cq {
        fill: #62839b;
      }

      .cr {
        fill: #e9dcda;
      }

      .cs {
        fill: #b2b4b5;
      }

      .ct {
        fill: #e9e5e3;
      }

      .cu {
        fill: #286186;
      }

      .cv {
        fill: #377aa3;
      }

      .cw {
        fill: #02283f;
      }

      .cx {
        fill: #f9d68a;
      }

      .cy {
        fill: #053653;
      }

      .cz {
        fill: #050504;
      }

      .da {
        fill: #3184ae;
      }

      .db {
        fill: #939393;
      }

      .dc {
        fill: #bcbcbb;
      }

      .dd {
        fill: #9f1318;
      }

      .de {
        fill: #696e77;
      }

      .df {
        fill: #c4d5e2;
      }

      .dg {
        fill: #012841;
      }

      .dh {
        fill: #64270e;
      }

      .di {
        fill: #b4171b;
      }

      .dj {
        fill: #030303;
      }

      .dk {
        fill: #f4ac0b;
      }

      .dl {
        fill: #b0c1ce;
      }

      .dm {
        fill: #c77576;
      }

      .dn {
        fill: #ebdfdf;
      }

      .do {
        fill: #13557a;
      }

      .dp {
        fill: #050404;
      }

      .dq {
        fill: #01314d;
      }

      .dr {
        fill: #02314c;
      }

      .ds {
        fill: #226188;
      }

      .dt {
        fill: #02273e;
      }

      .du {
        fill: #c83234;
      }

      .dv {
        fill: #9f0c0e;
      }

      .dw {
        fill: #a70f11;
      }

      .dx {
        fill: #919191;
      }

      .dy {
        fill: #f5ac0b;
      }

      .dz {
        fill: #ede7e6;
      }

      .ea {
        fill: #032336;
      }

      .eb {
        fill: #5e819b;
      }

      .ec {
        fill: #949595;
      }

      .ed {
        fill: #93b8d0;
      }

      .ee {
        fill: #ddc5c7;
      }

      .ef {
        fill: #012339;
      }

      .eg {
        fill: #f4f4f4;
      }

      .eh {
        fill: #696969;
      }

      .ei {
        fill: #216e96;
      }

      .ej {
        fill: #8ca3b4;
      }

      .ek {
        fill: #b91315;
      }

      .el {
        fill: #343535;
      }

      .em {
        fill: #185b7f;
      }

      .en {
        fill: #460e05;
      }

      .eo {
        fill: #020101;
      }

      .ep {
        fill: #d6dfe5;
      }

      .eq {
        fill: gray;
      }

      .er {
        fill: #214c6d;
      }

      .es {
        fill: #002339;
      }

      .et {
        fill: #f8f7f6;
      }

      .eu {
        fill: #f4ac0a;
      }

      .ev {
        fill: #040404;
      }

      .ew {
        fill: #2d6a8d;
      }

      .ex {
        fill: #fafafa;
      }

      .ey {
        fill: #538bac;
      }

      .ez {
        fill: #2d2b2a;
      }

      .fa {
        fill: #f8f8f8;
      }

      .fb {
        fill: #b40f11;
      }

      .fc {
        fill: #c5d4df;
      }

      .fd {
        fill: #f7af0b;
      }

      .fe {
        fill: #d9d9d9;
      }

      .ff {
        fill: #01283f;
      }

      .fg {
        fill: #1e6287;
      }

      .fh {
        fill: #080706;
      }

      .fi {
        fill: #dededd;
      }

      .fj {
        fill: #fdfdfd;
      }

      .fk {
        fill: #060605;
      }

      .fl {
        fill: #433e3c;
      }

      .fm {
        fill: #040403;
      }

      .fn {
        fill: #313231;
      }

      .fo {
        fill: #6c8da4;
      }

      .fp {
        fill: #3c1b10;
      }
    </style>
  </defs>
  <path class="d" d="M632.8,675.54c-12.63,12.81-26.26,23.46-42.14,31.57-6.72,12.29-15.46,22.91-26.64,30.66-3.69-3.01-8.09-3.93-13.05-3.12l-33.45,5.48c-3.43.56-5.67,3.18-7.68,5.23-4.54-.92-7.36-5.71-7.85-9.4-.61-4.65.92-11.24,6.18-12.12,3.75,3.07,8.17,7.7,14.14,7.64,22.43-.22,39.73-23.59,46.17-44.31-7.79,9.03-15.11,16.36-25.63,20.45-8.01,3.11-18.01,3.71-24.92-1.79s-8.52-13.89-7.96-22.1c-1.48.8-3.35,2.34-4.08,3.75-1.77,3.42-4.43,4.77-7.03,7.21-7.55,7.06-16.1,13.64-26.8,14.94-6.2.76-13.23.08-17.67-4.29-4.12-4.05-6.44-10.7-6.05-16.21.67-9.26,2.66-17.5,6.36-25.83l19.24-43.33-16.35-1.83-10.78,20.42-11.45,19.54-8.7,13.15c-2.1,3.17-4.53,5.34-6.81,8.28-8.16,10.48-17.07,19.79-28.77,26.25s-27.62,6.67-33.34-5c-2.19-4.46-2.63-9.73-2.99-15.23-6.74,8.38-14.28,16-23.73,21.02-5.02,2.67-9.62,3.11-15.02,3.38-9.51.47-17.68-3.66-21.77-12.67-6.8-14.97-2-36.7,5.06-52.24,6.76-14.89,15.26-27.62,27.48-38.62,17.18-15.46,45.25-24.3,58.41-2.9,1.64-4.34,2.67-9.46,7.17-10.35,7.11-1.4,19.71-1.24,25.12,3,2.38,1.87,1.56,5.07.46,7.49l-20.57,45.39c-4.98,10.99-9.16,21.82-11.3,33.64-.36,1.99,1.23,3.94,2.55,4.92,3.98,2.97,15.63-7.64,20.98-14.36,10.78-13.53,20.35-27.59,27.48-43.39l7.44-16.5c-1.31-4.26-4.22-9.19-3.2-14.22,1.14-5.66,1.89-11.24,5.15-16.07,5.36-7.95,15.62-10.04,24.66-6.15,2.24.96,4.66,5.15,3.79,7.65l-4.85,13.91c10.68,3.25,23.63-1.94,34.49,6.68,4.51,3.59,4.23,9.98,1.79,14.93-7.48,15.12-30.9,59.24-25.26,66.56,6.52,8.47,34.66-26.9,41.79-43.23l13.67-31.3c2.68-6.12,5.42-11.58,6.19-18.46,9.43-2.02,18.65-2.14,27.31,1.03,3.84,1.4,4.14,6.27,2.61,9.62l-19.17,41.95c-5.46,11.94-17.35,37.09-9.85,41.24,11.25,6.22,33.7-27.47,40.22-41.98l9.56-21.27,7.14-16.98,4.49-13.52c3.88-.83,8.07-2.61,11.89-1.92l12.57,2.25c5,.89,6.79,5.65,4.89,9.98l-11.87,27.14-9.92,22.94-12.83,32.88c12.51-6.16,37.1-31.23,41.41-40.86,16.83-37.6,32.96-74.59,54.67-109.59,2-3.23,1.64-4.59,6.36-5.16,7.68-.93,17.45-1.59,23.92,4.24,3.72,3.35,1.77,9.51-.7,13.47-22.13,35.6-43.65,74.81-57.79,114.14-3.15,8.76-7.14,21.19-2.54,23.92,6.72,3.99,25.6-17.85,27.99-24.13,7.93-20.84,16.81-41.13,33.94-56.28,8.35-7.38,17.91-13.44,28.8-15.24,12.38-2.04,23.76.65,28.7,11.41l4.84-9.04c11.6-4,30.6-.3,29.35,5.72s-4.09,10.71-6.62,16.26c-7.3,16.04-29.13,60.21-25.6,69.45,4.21,11.01,28.78-17.52,35.88-31.06l19.59-44.57,4.92-15.08c1.07-3.27,34-4.82,28.8,8.77l-4.75,12.41,8.38-8.72,7.03-6.04c4.99-4.29,11.29-7.28,17.67-9.16,9.06-2.67,19.76.37,23.49,9.2,3.61,8.56,1.51,17.9-2.08,26l-16.58,37.46c-3.4,7.69-7.72,19.87-4.66,22.6,4.35,3.88,13.8-5.28,19.62-12.63l8.39-10.58c5.8-20.04,15.13-38.33,29.45-53.47,16.09-17.01,44.38-29.73,60.5-9.39l9.57-20.65,13.36-30.74,2.8-10.29c1.31-4.83,23.34-5.96,29.88.61,2.82,2.83,1.13,7.88-.31,11.16l-25.43,57.62-11.76,27.26-10.5,26.5c-3.78,9.55-7.42,25.41-1.82,29.38,3.48,2.47,9.23-.1,12.74-2.62,11.72-8.4,20.4-19.86,27.47-32.3.79-1.39,2.39-2.19,3.39-2.32,3.24-.4,7.86,5.09,5.73,9.27-10.56,20.67-29.19,42.19-51.46,48.56-9.68,2.77-20.29,1.16-26.88-6.66-4.71-5.59-5.21-12.87-5.02-20.47-7.25,8.31-14.06,16.57-23.63,21.42-10.63,5.39-23.28,5.69-31.82-2.26-5.38-5.01-6.54-11.37-8.07-18.62l-17.74,16.52c-8.8,6.28-19.7,10.09-30.28,5.78-8.3-3.39-11.16-12.94-10.46-21.55.77-9.45,3.94-17.82,7.67-26.37l10.98-25.15c3.15-7.22,9.42-19.15,5.5-21.99-4.21-3.05-16.4,8.45-22.31,16.27l-10.4,13.75c-11.12,18.11-19.93,37.3-26.28,57.64-.68,2.16.08,4.39-1.56,5.93-3.48,3.26-20.96,5.16-28-1.39-3.64-3.38-.21-8.36.5-13.59-7.11,6.13-13.46,13.03-22.83,16.06-6.71,2.17-14.85,3.55-21.15-.23-7.27-4.36-9.32-13.6-9.13-22.05-7.07,8.13-14.11,16.27-23.89,21.08-7.82,3.85-17.53,5-25.49,1.59-9.01-3.86-12.93-12.61-14.13-22.36-12.94,13.09-24.76,25.41-42.5,23.87-8.13-.71-14.1-7.18-15.69-15.15-2.64-5.85-.56-11.32-.36-19.02ZM361.13,655.81c5.67-10.2,10.16-20.98,13.57-32.28,1.06-3.53.32-8.09-.06-11.73-.3-2.88-4.84-5.56-7.5-5.05-7.06,1.35-11.83,5.55-16.58,10.74-14.45,15.81-24.09,35.74-27.67,57.01-.67,3.97-.06,9.12,2.58,11.64,9.42,9.01,28.33-17.14,35.65-30.33ZM736.65,685.86c18.06-13.49,32.07-40.83,37.98-62.36,1.05-3.81.75-9.56-.4-13.12-2.6-8.01-16.9-1.77-26.33,10.34-11.3,14.52-19.88,30.85-23.79,49-1.1,5.12-1.28,11.37,1.11,15.69,2.04,3.69,8.17,2.88,11.43.45ZM977.31,684.26c8.29-6.71,18.86-20.92,23.02-30.22l9.58-21.44c2.99-6.68,4.17-15.09,2.31-22.27-1.55-6.02-13.34-4.06-22.12,5.58-13.25,14.55-27.15,40.51-28.17,59.79-.17,3.26-.25,8.49,2.25,10.62,4.32,3.69,9.69.71,13.12-2.06Z"/>
  <path class="ev" d="M382.94,427.82c2.23,1.8,4.6,3.1,7.11,3.9,21.58-4.72,32.37-7.08,32.37-7.08,3.24-1.77,6.1-2.41,8.58-1.92,2.47.85,4.89,1.24,7.25,1.17-.04-.7,0-1.29.3-1.54,2.19-1.74,17.07-4.76,20.72-5.07l1.71,1.69c1.3-2.04,2.02-2.11,3.13.06l.68-2.59c5.57-1.04,11.14-2.13,16.7-3.28l1.73,1.66,1.72-1.28c2.1-.03,4.22.09,6.38.36.78-1.94,2.04-3.61,3.78-5.01l.28-1.75c-1.98.05-1.96-1.08.06-3.39-.78-.11-1.95-.38-1.98-.93-.35-5.75-.23-17.33.51-22.89-.21-2.54.31-4.35,2.14-6.22-2.5-.59-2.64-1.09-.93-3-2.39-3.06-1.24-10.55,1.03-13.95-1.58-1.22-1.62-3.57-.12-7.04-.87-.29-.86-.63,0-1.01-2.36.24-2.4-.74-.11-2.92-.05-1.28.2-2.45.88-3.63.46-.8,2.39-2.35,3.33-.74,1.2,2.04,2.62,3.9,4.05,4.73,2.87.7,5.16,8.89,2.3,10.45-2.71,2.7-4.54-.2-3.36-3.16-1.96-.02-2.45,2.89-1.47,8.71,2.67.13,1.64,1.83.21,3.55,2.03.36,1.94,1.27-.09,1.8-.62,1.97-.89,6.21,1.33,3.86-.24.19-.87,1.33-.47,1.01,3.08-2.46,3.94-3,2,1.27,1.47,2.04.62,5.92-.7,7.94,1.41,2.53.56,4.78-2.51,3.95,3.28,3.75,3.71,9.56.25,13.21,2.77.04,3.16,2.08,1.17,6.14,1.2.75,1.62,2.17,1.25,4.26l6.34-1.1c3.6.05,6.49-.4,8.67-1.34-1.69-3.02-2.43-6.04,1.14-7.01-3.77-2.03-2.43-11.24-.21-14.95-2.54.32-3.29-.63-2.12-3.04-1.46-.36-1.86-1.74-1.2-4.15-2.42-2.62-3.04-4.86-1.86-6.73-1.95-3.65-.19-5.04,2.33-1.75,1.98-1.14,2.31,3.29,2.02,2.87-1.03-1.52-2.25-8.39,1.11-8.07l-1.44-1.95c.78-1.34,1.27-2.62,1.47-3.83-1.84-.11-2.74-1.65-2.67-4.63-5.94,1.54-3.57-6.41,2.16-6.74.77-.83.62-2.72,1.26-3.43.68-.76,2.79-.78,3.44-.22.5,2.05.92,4.38,2.36,5.6-1,.76-1.39,1.85-1.15,3.27l2.01,1.04c.15,4.45.2,8.76.13,12.93.17,2.03-.3,2.54-2.17,1.85,2.69,1.68,2.71,5.17.87,7.47.92,0,.97.2.15.62l1.41,1.8-.05,27.68c2.1-1.04,3.63-.82,4.59.67l2.13-1.26c2.19,1.47,4.71,1.89,7.56,1.26l.33-2.3c1.81-1.31,24.25-3.71,26.25-2.6.34.19.57.56.77.99.37-2.54,1.6-2.61,3.33-.95-.16-3.02.87-3.38,2.77-1.08,1.46-1.9,2.42-1.61,3.1.68l2.17-2.29c1.64-.7,19.96-2.5,21-1.95.38.2.62.68.82,1.24,1.84-1.18,3.88-2.11,6.14-2.78,1.71-2.01,4.14-1.88,5.92-.02,1.26-1.15,2.79-.69,4.24-.09l2.6-2.18c7.26-.04,14.35-.84,21.26-2.39l-.12-8.13,1.98-1.38c.56-12.07.68-24.2.37-36.41-2.18-.92-2.46-2.18-.86-3.8-3.02.11-2.35-5.55.54-5.77.62-5.92.72-11.92.3-17.99-2.33.1-2.16-1.17-1.11-3.07-.54-.99-.27-1.23.76-.75.64-6.15.69-12.44.17-18.87-2.56-.81-1.76-2.21-.16-4.2-2.43-.73-2.39-2.08-1.17-4.03,4.25-6.79,15.29.47,9.88,6.93,2.39.66,3.04,3.05,1.86,5.1,2.41.28,2.28.51.3,1.87,3.15,2.74,3.11,4.42-.12,5.04l-.51,2.64c1.24,3.01,1.04,9.31-1.36,11.29-.29,3.67-.59,7.33-.89,11l1.32.64c.96-3.5,2.48-4.78,4.56-3.87,2.29-2.12,6.01-2.42,3.08,2.17l1.1,1.98c-3.87,4.8-6.29,10.09-7.27,15.87l-2.13,1.26c.92.79,1.5,1.86,1.73,3.19-1.31,10.99-.89,21.61,1.27,31.86.19,2.09-.01,4.41-.59,6.95l18.99-2.07c.42-1.06,1.04-2.06,1.87-3.02-1.87-1.61-1.49-4.71,1.17-4.71.93-.85.23-16.09.03-18.72-2.43-.04-2.47-2.22-.11-6.53-3.36.31-2.84-4.01-.95-5.96l-2.15-.85c-.29-5.24-2.76-9.49-5.34-13.91l1.14-2.08c-1.25-3.09-.97-5.1,2.57-3.56,2.5-.72,3.19-3.39,2.06-8l1.78-1.36-1.35-5.16c.72-3.95.39-7.83-1.01-11.64-1.07-2.14-2.59-6.58,1.57-7.19-.78-.39-1.53-1.12-1.25-1.81,3.7-9.14,10.57-8.88,12.24,1.33,2.9,3.66,12.76,20.32,13.03,24.18.19,2.67.21,4.01-2.55,2.46l-2.17.15-8.18-15.86.64,16.05,10.63,10.08.16,2.74c-.53.69-1.13,1.45-1.95,1.6-2.18.41-8.43-4.96-10.05-6.8.25,1.36-.55,2-1.87,2.59,1.42,2.5,3.14,9.38,3.46,12.56.22,2.18.28,4.06-2.24,4.45.79,2.76,1.31,3.44,1.57,2.04-1.45-1.84-.33-2.92,1.91-2.13.92.33,7.43,12.7,4.42,14l11.05,24.89c6.48.68,12.35-.76,18.72-.76h10.83c.35,4.54,2.81,7.77,4.86,12.17-8.33,2.4-16.35,1.31-24.59,2-5.13.43-9.81.91-15.16.87-4.6-.03-8.93,1.82-13.92.73l.49,30.81.82,38.51c6.59-1.28,6.48,1.75,9.73,5.05,2,.47,2.44,2.68,1.3,6.63-21.07.46-42.2.52-63.37.19-3.05-.44-2.78-7.31.16-7.89-4.89-3.55,2.09-7.81,6.87-7.6l.78-58.88c-37.57,3.05-75.48,7.27-113.72,12.66l-.04,48.14c5.24,1.12,6.92,3,5.03,5.66,3.05.53,2.69,7.5-.26,8.1l-.92,2h-43.5s-1.19-2-1.19-2c-3.06-.48-2.81-7.46.13-8.11-3.13-3.17,1.26-4.84,4.56-5.43.06-14.41.26-28.9,1.12-43.22l-34.84,5.81.07,30.01c1.27,4.83,1.23,9.13-.11,12.9,3.12-1.22,2.79,6.98,2.25,7.44-1.8,1.55-15.16.92-18.35.68-.22.69-.42.59-.6-.2-3.01-.75-2.14-7.7.84-8.09l-1.89-1.06c.95-4.02,2.55-34.52.94-35.27-1.14-.53-23.95,2.51-24.9,3.32-1.18,1.01.31,28.05.93,30.95l-1.44,2.26c3.07.32,3.13,7.26.23,8-.1.77-.3,1.88-.87,2-1.85.37-6.85.13-8.97-.04-2.81.56-4.54-.12-5.19-2.02-3.01-.72-2.21-7.66.77-8.08l-1.97-1.15c.58-10.47.78-20.84.6-31.13l-11.44,3.3.06,27.74-2,1.46c3.05-.39,2.95,7.11.03,7.69,1.41.05,2.14.65,1.87,1.94,11.56.27,22.01,1.62,32.48,6.73,10.34,1.93,20.71,5.26,29.96,10.48l1.36,2.86c.48,3.24,6.68,6.82,11.29,7.14,13.12.9,45.41,7.59,45.87,9.28.14.51-1.28,1.62-1.95,1.64l-21.53.52-99.29.55c1.02,4.73,8.13,2.42,14.04,6.8l-79.96.1c-.52-6.3-3.23-11.12-7.33-14.99l1.84-1.48c12.97-1.34,26.04-.36,39.22,2.95-15.4-10.16-31.03-19.45-46.88-27.87-10.35-.69-20.75-.8-31.22-.33,9.38,1.24,18.12,3.98,26.21,8.21,4.62,3.89,2.56,11.23-3.08,10.73-7.46-3.09-15.53-3.31-23.94-3.38-7.38-.05-14.32,1.13-19.7,6.57l-5.37,3.85-2.51,1.1-7.94-5.5c-11.49-4.46-22.95-9.27-34.38-14.43-15.02-22.02-36.49-26.64-60.87-18.54,12.51,2.24,18.76,3.36,18.76,3.36,3.09.76,3.6,1.7,3.58,4.56-.03,4.6-17.44,15.92-21.63,18.49l-24.66.08c-12.54,1.14-24.21,3.87-35.94,7.8l-17.34,5.81c-2.58.86-6.38,2.64-9.18,2.65l-38.47.09,8.78-7.57c2.12-1.83,4.36-2.96,6.4-4.65,3.94-3.25,7.48-6.57,12.39-8.54l.36-46.91.84-11.15,4.01-31.98,7.37-38.73,5.36-20.62c.94-3.63,2.15-7.76,3.43-11.37l11.85-33.36c10.04-25.47,22.21-49.78,36.47-73.07l13.08-21.36c1.59-2.59,4.05-5.33,5.83-7.89l7.01-10.1,21.29-26.6,9.03-9.97,29.66-29.42c44.55-40.14,95.69-70.75,151.71-92.12,16.31-6.22,31.9-12.1,48.79-16.21l33.04-8.04c19.09-4.64,56.38-9.42,76.91-10.8l14.96-1.01,46.07.05c19.89.02,72.68,7.46,92.96,12.72l35.81,9.3,36.98,12.91,19.23,7.93c45.36,19.81,86.31,46.73,123.47,79.15l14.94,14.23,4.9,5.11c11.48,11.97,22.07,23.5,32.52,36.59,29.71,37.2,53.28,78.23,71.27,122.35l6.9,18.28,3.44,10.54,7.1,23.49c-2.25,1.61-4.96,2.49-7.37,1.82-1.97-6.06-7.3-11.16-10.54-16.36-20.8-64.44-52.89-120.89-97.46-171.5l-12.73-13.31c-3.72-3.89-7.15-7.36-11.05-11.05l-12.37-11.73c-77.59-68.27-173.15-106.11-275.95-115.67-5.09-.47-9.2-.87-14.11-.94l-21.03-.32c-7.58-.12-14.69-.45-22.25-.22l-21.56.65c-29.74.89-74.71,8.83-104.09,16.71-80.42,21.59-150.07,58.53-210.49,115.36l-16.04,16.08-10.06,10.96-13.74,16.18-11.42,14.7-20.56,30.48c-26.69,43.34-45.62,89.56-57.85,139.07-6.13,24.84-8.97,49.2-11.5,74.55l-.94,23.97-.47,18.49c3.56.93,5.79-.9,8.64-2.25l17.63-8.36c-.54-7.15-2.58-12.89-5.47-19.39,7.4,4.55,9.64,15.74,13.84,15.25,4.67-.55-2.43-17.38-5.77-27.42,6.6,5.82,10.37,12.68,14.58,19.99.45.78,3.21.63,3.54-.18.47-1.13-.35-2.95-.49-4.04-1.47-11.56-4.44-21.51-8.62-32.85,7.33,8.24,12.62,17.06,16.54,27.01.8,2.02.65,3.88,3.73,4.28l-.34-18.84-.95-8.06-3.97-22.13c7.35,13.05,11.92,25,14.11,40.02.12.8,1.01,1.82,1.49,2.01.31.12,1.27-.74,1.29-1.25,1.01-19.21,4.17-37.95,10.92-55.88l-1.55,20.15c-.3,3.89-.78,7.37-.83,11.14l-.32,23.93c1.97-.73,2.53-2.14,3.13-3.87,3.52-10.1,6.94-20.04,13.95-28.6-2.96,12.11-7.23,22.41-8.18,34.48-.06.72,1.52,1.57,2.63,1.12,2.18-5.15,4.99-9.73,8.6-13.96-1.65,6.93-5.24,11.38-3.99,18.25,8.99-1.99,17.71-1.97,27.59.09l10.69-111.2.82-11.39,1.05-9.94c.47-4.47.55-8.53.96-13.04l1-11.01,1.03-10.05c.35-3.39,2.47-8.99-.19-11.97-2.08-2.33-7.84-2.4-9.51-5.2s.36-6.12.42-8.72l.18-7.91c1.39-5.14,1.05-9.66-.41-14.86,5.93-3.54,11.65-5.34,18.09-7.88l.03-29.69c-1.9-.48-2.76-1.25-3.4-1.74s-.89-3.34-.12-3.59c3.44-1.12,5.43-3.8,8-6.08,6.95-6.15,15.48-10.01,23.53-14.31,1.03-2.92-1.45-5.76-1.5-7.84-.07-2.97,5.2-4.12,5.37-5.97l.63-7.15c.1-.01.49.09.67.49l.25,7.39c1.94.56,5.4,1.84,5.57,4.25.2,2.87-1.47,5.71-.73,8.79,8.68,5.03,16.91,9.89,24.59,16.31l6.56,5.49c-.59,2.28-3.51,3-4.55,3.94-1.9,4.94.11,10.18.18,15.24l.2,13.97c5.21,3.02,10.63,5.56,16.58,7.72l.61,24.35c.05,1.98,3.68,5.03,1.11,7.59s-6.61,3.93-10.43,5.8l8.06,92.53,2.22,24.15,31.73,3.93,20.96,3.1.16-9.91c3.96-2.79,8.87-2.81,12.82.02v11.83c5.45-.77,7.26,3.08,10.1,6.05s5.92,5.09,8.24,8.65c1.94,2.99,4.73,4.66,7.73,4.41ZM227.93,213.53v17.9s8.22-.79,8.22-.79l8.59-.03,8.16.8c-.2-10.49.85-27.92-1.72-27.82-5.66-1.33-12.18-1.48-18.2.14h-4.96s-.08,9.8-.08,9.8ZM223.98,231.64l.17-27.22c-4.15.87-7.47,1.78-11.5,3.44l-.7,27.11,12.03-3.32ZM268.51,234.78l-.83-26.87c-3.49-1.82-6.75-2.98-11.17-3.62l.17,27.96c4.77.14,8.19,1.74,11.83,2.53ZM198.1,245.73c-.93.26-3.27.45-3.72,1.21-.54,1.94,1.98,2.27,3.19,2.75l8.21,3.26c1.89-3.12,1.64-6.73.69-9.55l-8.38,2.33ZM286.15,247.92c-3.89-2.4-7.82-3.64-12.05-4.41-.22,2.68-.91,5.82.3,7.89,1.64,2.82,7.24.44,11.75-3.49ZM199.49,254.57c-2.29-2.44-3.45-2.82-5.5-3.88-.93,2.38-.91,4.64.04,6.96l5.47-3.08ZM282.81,255.13c1.15,1.38,3.36,1.89,4.23,1.16.57-.48.65-2.17.39-3.39-.37-1.76-2.12-1.26-3.19-.51-.68.48-2.86,1.02-1.43,2.74ZM201.88,259.63l.29,4.69c.07,1.18,2.23.17,2.8-.18.52-.33,1.74-.06,2.02-1.05.79-2.76.71-7.3.07-7.88-.83-.76-3.21-.24-4.75.27-1.44.48-.53,2.51-.43,4.17ZM280.47,265.48c.1-3.65.6-6.41-.58-8.85-.76-1.58-4-1.95-5.86-1.67-.02,2.69-.79,5.84.22,8.71.58,1.64,4.93,2.15,6.22,1.8ZM194.25,266.49c1.17.87,3.13-.22,3.82-1.19,2.04-2.84-.81-5.24.96-7.58l-4.89,1.18c-.31,2.44-.53,5.19.11,7.59ZM287.36,268.63c.17-3.71.68-6.26-.13-9.13-.42-1.47-2.76-2.27-3.71-1.78-2.27,1.19-1.74,8.08-.31,9.05.81.55,2.06,1.48,4.15,1.85ZM202.79,325.52l-4.01,47.42-4.05,44.28-3.68,45.68c6.44,1.06,12.79,1.34,18.94,3.73,6.72,2.61,12.17,6.96,18.29,10.86l19.34.03h43.42s-8.7-103.57-8.7-103.57l-3.62-46.85-4.19-49.28c-8.7-4.04-17.9-5.29-27.45-5.97-13.61-.97-26.92.08-40.53,5.21l-3.78,48.46ZM324.97,433.64l35.04,3.06,10.98.99,13.29.91-25.46-25.64c-1.62,2.58-1.67,5.18-3.89,5.69-2.45-.37-5.08-.45-7.34-1.84-.28-1.46-2.03-4.53-3.95-4.8l-23.57-3.35c-.32-.57-.98-1.02-2.04-1.04l-8.98-.17-4.86-1.1c-3.9-.88-7.66-1.15-12.32-1.55l2.58,26.23,11.39.65,1.72-1.6c.36-.33,1.38,1.86,2,1.92l15.41,1.62ZM678.11,411.09l-24.46-.34,12.44,16.63,12.02-16.28ZM660.02,434.27c1.24-1.57,2.17-2.49,2.01-4.02-.13-1.26-1.35-2.1-2.3-3.34l-5.66-7.46.09,22.23,5.85-7.41ZM677.53,440.94l-.02-20.94-8.02,10.49c2.97,3.89,4.75,7.72,8.04,10.45ZM519.94,426.9l-17.43-.09c2.34,4.69,4.78,8.36,8.46,12.6l8.97-12.51ZM519.65,450.71l.2-16.28-6.23,7.4c1.44,3.58,3.33,6.55,6.03,8.89ZM677.98,470.33c-.68-7.58,1.27-14.85-.67-21.3l-11.31-15.12-11.43,15.14-.78,21.7,24.19-.42ZM503.6,448.22c2.28-1.04,4.73-4.51,4.07-6.01-1.27-2.85-2.96-5.14-5.37-6.89l.26,7.38c.06,1.76-1.44,5.62,1.04,5.51ZM354.45,486.52c9.62-.73,18.15-.2,27.1.99l-.27-43.15-86.57-7.67,3.9,41.37c9.62-.12,17.85,2.4,24.9,8.19l30.94.27ZM520.01,472.52c-.65-5.55,1.88-11.61-.73-15.21l-8.24-11.38-7.57,10.09c-1.68,5.28-.2,11.08-.51,16.63l17.05-.14ZM441.95,513.51l-24.01-11.8c-3.27-1.61-6.21-3.61-10.08-3.96-17-.76-33.43-1.69-50.23-.44,16.96,5.93,41.27,3.45,51.02,15.78l33.3.42Z"/>
  <path class="i" d="M215.14,613.95c-14.04,25.46-25.15,51.78-34.66,79.24-2.46,7.1-3.76,13.71-5.41,20.72-1.21,3.76-7.94,3.31-10.78,3.95-9.09,2.04-22.44-.46-24.74-6.74-1.63-4.45-.55-10.37.66-15.2,4.99-19.79,11.27-38.31,18.6-57.35l20.57-53.44c3.74-9.73,9.17-24.11,6.95-32.04-7.58,1.63-12.28,7.08-16.76,12.25l-6.55,7.55c-10.57,15.05-19.73,30.3-27.88,47.1-15.71,32.37-28.89,65.34-40.2,99.55-2.88,8.71-4.64,16.65-5.42,25.94-10.29,4.24-21.99,4.37-32.7,1.46-6-1.63-9.22-7.03-7.77-13.32,3.85-16.71,10.41-31.87,17-47.86l36.75-89.17c6.71-16.28,13.03-31.81,17.23-48.8.74-2.99,1.06-5.92.86-9.29-4.97-1.74-10-.9-15.33.93-26.45,9.08-48.61,28.06-62.26,52.45-7.75,13.85-13.54,34.53-5.47,46.97,2.67,4.12,8.41,5.23,13.5,4.68,1.85,2.82.14,5.88-2.59,8.05-10.97,8.72-25.94,8.07-37.32-.57-6.98-5.29-10.06-13.81-11.07-22.83-3.05-27.29,14.56-55.77,34.93-74.28,26.49-24.06,63.44-37.28,99.25-33.73,6.5.64,13.17,2.63,17.48,7.35,8.18,8.98,1.91,25.37-.94,38.59,13.39-17.95,30.86-41.71,53.39-39.06,11.47,1.35,18.85,10.18,17.51,21.81-2.14,18.63-9.76,35.02-16,53.14l15.53-25.75c8.31-13.78,17.98-26.28,29.17-37.84,12.48-12.9,26.67-22.26,44.26-17.91,9.89,2.44,14.49,10.72,14.29,20.13-.16,7.75-.93,14.48-3.54,21.73l-9.01,25.03-22.74,56.15c-5.73,14.14-10.16,28.14-12.84,43.1-1.91,10.68-1.78,21.1,1.85,30.98,3.18,8.66,11.01,13.26,19.98,13.28,5.57.02,9.91-1.46,14.97-3.08,1.74-.56,3.4,3.04,3.27,4.38-.17,1.8-1.53,3.76-3.4,5.39-7.86,6.87-17.88,9.99-28.43,11.59-11.19,1.69-22.7-.49-32.7-6.31-10.95-6.38-16.62-18.39-18.17-30.69-3.04-24.13,7.56-53.27,16.86-76.22l7.79-19.24,22.46-52.34c2.19-5.11,3.51-10.19,2.31-15.92-5.57,1.84-9.75,5.35-13.71,9.43-16.79,17.26-27.39,34.97-39.01,56.05Z"/>
  <path class="dd" d="M824.95,219.63c-7.51-.72-15.51-.86-22.99-.01l-12.03,1.01c-11.78.99-22.6,4.86-33.77,8.14l8.69,31.09,12.31-3.89c7.82-.98,13.84,4.77,15.42,11.73,1.53,6.78-2.61,14.39-9.79,16.81-3.45,1.16-7.31,1.45-10.12,4.24,1.07,5.61,4.26,11.21,3.98,16.7-.43,8.27-4.48,15.68-12.04,19.71l-24.88-90.54c-21.6,8.38-43.74,13.78-66.93,15.75l-14.62.27c-2.83,2.22-5.66.37-8.44.32-20.43-.33-40.16-2.91-59.97-7.93l-10.38-1.96c6.49,22.94,29.08,21.37,30.32,23.38,1.74,2.81-.29,16.32,11.7,24.83,3.62,2.57,8.88,3.17,13.17,2.02,8.62-2.32,7.6-14.27,3.08-24.47l36.84-.53c12.42-.18,24-3.17,36.06-5.94l17.26-3.97,6.98,25.51c.43,1.57.54,4.47-.41,5.52-1.87,2.05-19.02,2.75-19.29,17.27-.17,9.23,9.12,16.55,17.39,13.71l10.95-3.76c.63,5.25,2.8,8.85,5.71,10.55,4.41,2.58,8.07,1.18,13.62,1l-23.13,14.27-22.2,11.88,4.69,5.73-.7.64c-3.74-4.2-5.17-6.1-10.33-4.09-7.24,1.11-8.75-1.79-4.4-7.41l-7.41-6.78c-6.56,4.03-11.34,1.13-14.32-8.68-.2-2.31-.49-4.64,1.63-6.17,3.58,4.58,7.16,7.88,12.25,8.78,1.26-1.21,2.09-1.01,3.3-.11l-5.51-10.86,1.13-2.2c1.17-.38,1.36-1.19.62-1.78l-2.91-6.14c-1.82-3.84-3.42-6.89-4.7-10.67-.99-2.94-5.42-5.44-5.71-8.72-.23-2.61-.89-4.22-2.82-5.03-1.08-.45-4.06.48-3.98,1.84.17,2.9-1.72,3.27-1.96,4.35-.19.73-.55,1.9-1.08,1.9-2.61,0-20.12-1.7-21-2.74-.3-.35-.44-.85-.52-1.39-.17-.66-.91-1.79-.73-3.04.48-3.18-1.85-4.57-4.51-4.53-2.37.03-3.95,2.27-3.49,4.68l-.84,3.12-5.28,3.8c.19.42.32.79.18.96-6.34,8.33-27.29,24.81-36.54,30.84l-2.36-.7c-1.51.67-2.57.63-3.19-.13-2.55-1.44-4.2-4.22-4.95-8.33-2.08-3.72-2.35-6.6-.83-8.64-6.69-23.67-13.81-47.31-21.35-70.92l.72-.93c.13-1.92,1.91-2.42,5.32-1.5-.25-13.75,11.77-15.65,22.36-11.34-3.53-8.7-3.88-21.23,8-22.52,15.6-1.7,23.64,14.86,24.99,28,15.49,2.51,31.89,2.36,47.84.13,12.3-1.72,28.26-3.98,39.42-9.22,1.32-.62-6.44-26.91-7.74-27.57-31.47,13.57-40.69-26.75-8.69-32.96-3.11-7.71-3.79-15.37-2.03-22.99l3.78-3.6c-.2-.65-.32-1.19-.13-1.34,2-1.54,9.1-6.18,10.32-3.6l24.47,87.65c18.43-8.09,36.59-11.97,55.97-13.89l35.22-.32c13.73,1.84,26.97,2.93,40.09,7.11l25.31,8.06c-3.54-14.76-15.61-24.06-30.64-24.85l-2.84-14.15c-2.78-7.65-9.16-13.99-17.46-14.36-5.54-.25-10.17,3.69-10.24,8.93-.07,4.84,1.52,9.06,2.59,13.6.5,2.12-3.26.92-4.58.86l-17.63-.73c-3.27-.14-5.35-.14-8.63,0l-15.29.67c-13.83,1.99-27.23,3.7-40.28,8.55l-6.83-25.18c-.42-1.55-2.96-5.33-.39-5.96l9.43-2.34c7.55-3.03,11.46-10.77,8.82-18.01-2.48-6.78-10.2-11.63-17.25-8.63l-8.37,3.56c-1.12-3.85-2.58-7.51-5.47-10.46-3.26-3.32-8.35-3.3-13.07-2.61-.35-3.47,2.41-2.97,4.45-3.8,44.52-18.23,83.41-12.21,122.99,14.15,33.97,22.61,60.2,50.84,83.73,84.58l-18.25-7.16c-2.43-.95-13.53,5.3-13.33,5.11-1.58,1.57.94,7.18-2.61,10.33-1.4,1.24-3.79,2.14-5.9,1.56l-15.86-4.32,3.12,10.03c1.23,3.95.58,8.18-2.25,10.78s-6.58,2.82-10.2,1.76c-8.01-2.34-13.3-7.86-15.36-15.97l-3.03-11.94c-.8-3.14-6.7-2.19-9.28-2.45l-10.2-1.02Z"/>
  <path class="r" d="M681.8,143.18c1.78-.33,2.42,0,1.13,1.41l-1.33,2.01c-46.06,19.55-98.07,13.49-142.71-6.64l30.6,94.96-1.55,1.73c-.34.42-.7.42-1.07.01l-3.1-.17c-19.68-10.59-39.85-20.16-60.51-28.7l24.7,77.23c-.93,3.01-1.9,4.09-5.33,2.36-20.5-8.03-41.35-15.89-63.01-19.93l21.01,65.34-1.54,1.75-8.29.96c-17.79,3.92-35.1,8.77-51.57,15.42l-2.11-.05c-10.83-34.18-21.66-68.36-32.49-102.55l1.54-1.76,1.33-1.73,65.44,16.02-23.8-76.13c-.99-2.74,1.05-4.76,2.8-2.76l3.71-.48c20.58,4.55,40.78,10.69,60.6,18.41l-28.8-92.01c-.49-2.51-.02-3.27,2.6-3.07,26.37,6.66,43.56,17.69,66.81,29.16l11.37,5.61c7.11,3.51,14.13,6.08,21.99,7.99l16.79,4.08,15.98,2.17c24.2,3.28,56.21-2.08,78.84-10.63Z"/>
  <path class="aa" d="M910.99,314.7c2.6-.53,6.13,1.07,5.9,4l1.95-1.24c8.31,4.6,16.77,8.81,25.39,12.6-.87-1.84-1.79-2.82-2.74-2.91-3.84-3.89-8.36-6.9-13.56-9.04-4.23-.8-7.54-2.33-9.93-4.58-.33,3.14-5.93,2.11-6.66-.58-.31-.13-.79-.45-.93-.79-.72-1.66,6.91-6.07,18.73-5.55,16.52.72,31.26,9.61,41.9,21.91,3.45.46,5.82,2.51,8.28,4.89,8.06,7.83,16.17,15.71,20.44,26.42,1.25,3.14,2.14,5.93,4.69,8.31,7.91,7.37,8.15,24.13-1.32,30.73-2.49,1.73-2.72,3.93-3.56,6.54-2.86,8.9-14.75,11.04-14.48,12.86l.65,4.25-19.94,13.94c-.62,1.24.86,3,2.18,2.49l28.27-10.99,10.97-5.13c.12-.05,15.17-14.51,16.67-17.13,5.92-10.38,6.33-23.84,3.21-36.39,6.28,7.03,8.89,16.08,9.88,25.3.69,6.4-1.42,12.03-5.21,16.92l-15.69,20.24-7.68,5.45-7.01,1.79c-7.06,4-14.43,5.48-22.17,7.1l-19.86,4.16-10.47,1.98,18.97.16,33.17-3.97c6.77-.81,11.62-.35,17.25,3.98,6.67,5.14,14.97,9.86,20.02,16.72,6.16,8.35,1.49,27.98-8.38,35.84,3.69-12.5-3.39-20.08.5-28.45-5.52-3.11-11.68-5.35-14.66-10.63l-3.1-5.48c-3.87,1.72-7.13.58-10.92.77l-10.72.54c-3.94.2-7.43.76-11.13.75l-27.83-.02c-5.43,0-15.59-2.84-13.05,1.72.38.69,1.62.72,2.74.89l41.3,6.36c4.74.73,6.62,3.51,9.32,6.9,2.91,3.66,6.38,6.08,8.55,10.57,1.45,3.01,6,6.12,5.66,10.01l-1,11.48c-.81,9.23-4.91,17.91-13.85,21.76,3.88-11.2.7-20.02,3.65-28.73-6.03-4.7-9.64-10.24-11.16-17.73-3.81.74-6.24-1.43-9.1-2.12l-31.37-7.63c-3.62-.88-7.02-1.71-10.91-.97l3.17,2.61c7.52,3.64,15.88,6.15,22.07,12.03l5.19,8.77c4.16,7.04,3.22,16.31-.18,23.14-3.72,1.06-4.81,3.56-4.07,7.09-4.05,12.17-15,20.89-28.01,21.12-4.34.08-9.56-.69-11.3-4.71,3.33-.16,9.23-1.29,10.08-4.12-.54-11.06,4.31-20.4,14.82-25.01-4.27-6.97,2.68-13.91-.23-14.1l-2.35-.15c-5.57-.36-24.75-10.61-29.83-18.45-1.72-1.36-6.47-.97-8.48-3.79-18.2,4.05-36.99,3.14-54.01-4.34-3.8-1.67-6.37-2.68-10.73-1.57-1.74.44-5.91-1.76-7.63-.57-20.74,14.41-38.85,7.25-39.61,9.58l-2.2,6.73c-.67,2.06-2.77,3.02-2.72,4.97.06,2.81,9.15,11.6,3.63,21.96-1.14,2.13-2.73,4.39-.2,6.38,1.75,1.39,4.04,2.28,5.69,4.85-15.29,3.48-28.33-9.25-28.73-23.49l2.01-8.04c-3.51-2.8-1.69-5.69-.99-8.66,2.04-8.63,6.63-14.02,13.93-18.54,3-1.86,4.65-4.16,9.38-4.66l11.4-1.2c4.19-.44,8.37.42,11.36-2.92-4.49-1.42-8.4-1.73-12.62-1.81l-34.56-.61c-1.65-.03-4.96-1.75-6.53-.25l-5.73,5.47c-2.96,2.82-6.98,5.47-10.3,7.37-1.7,6.48-3.25,12.78-3.58,19.69-.07,1.37,2.16,3.57-.61,5.02-4.55-4.63-8.48-11.63-8.15-18.97.46-10.3,4.93-14.85,12.51-20.35l13.25-9.61c4.15-3.01,7.39-2.95,12.07-2.48l24.06,2.43c6.71.68,12.99,3.21,19.97,1.48l-15.31-3.37-14.99-3.03-23.4-5.53c-4.23-1-5.91-1.17-9.97.97l-11,5.8c-1.32.7-3.96.26-4.22,1.24l-.94,3.56c-4.01,6.28-6.4,12.58-6.64,19.42-7.43-10.6-4.66-21.23,2.26-31.07,7.82-5.24,18.42-11.79,27.79-12.89l30.19,8.38,14.6,4.06s.2-.33.59-.66l-12.24-5.24-16.49-7.62c-5.22-2.99-10.12-6.08-16.19-7.73l-14.96-17.99c-9.63-11.59-6.6-28.89,3.31-40.3,1.59,4.06-1.38,7.2-1.28,10.76.19,6.49.49,14.79,4.25,20.17,4.03,5.75,10.29,9.44,12.39,16.63,3.23-.66,4.54.35,6.49,1.56l16.64,10.32c3.24,2.01,6.63,3.46,10.34,3.52-4.89-11.14-15.45-13.88-15.97-22.62-3.76-4.25-9.07-8.15-7.48-14.89-8.78-5.18-9.9-16.29-4.44-24.63,1.75-4.83,4.68-8.85,9.99-9.93,2.03-5.17,5.27-9.11,9.42-12.6,2.47-2.99,5.22-5.42,8.5-7.5,5.58-4.81,11.92-8.29,19.3-9.64,9.07-7.1,19.83-10.24,31.05-12.1,8.73-1.45,24.25.4,28.68,7.68-16.81-2.18-31.94,3.18-43.59,15.12,3.7,2,7.6-.18,10.94-.41,2.78-.19,4.31-1.71,6.69-2.26,9.4-2.16,18.48-3.88,26.72-8.69-2.21,10.74-21.2,20.85-31.48,25.63l-17.13,7.96c-8.88,6.17-16.78,13.25-27.62,16.27-2.66.74-6.27.69-7.44,4.27l14.07,7.28,13.5,12.35c1.48-3.89,4.09-5.47,7.7-4.81l2.42-4.12c4.66,1.24,6.94-1.4,10.96-2.95,2.64-1.02,9.1.81,10.57-3.12.85-2.27-.21-5.93,3.12-6.64,8.85-1.89,6.99,9.1,16.43,6.19,3.72-1.15,27.26,1.25,34.55,3.89,3.93,1.42,6.37.98,9.1-2.46,1.37-1.72,5.33-2.4,7.04-1.23,4.66,3.21-1.77,11.23,3.69,11.88,4.84.58,8.42,3.33,12.48,5.38,4.28,2.16,8.3,8.65,13.94,12.02,3.15.64,4.96-4.59,6.75-5.87l8.94-6.34,5.39-1.27c2.54-2.84,5.27-3.6,9.1-3.41,1.03.05,1.29-3.28.67-4.3-.53-.88-2.7-.62-4.13-1.36-20.55-10.56-23.83-22.69-30.37-27.53l-19.59-14.52c-7.87-5.83-20.52-19.08-18.63-23.42.23-.52,1.27-.73,1.88-.8ZM843.99,308.33c-9.32,2.28-19.01,4.34-25.98,11.24l-1.19,1.86c-1.83,2.86,4.98,1.18,7.57,6.63,8.96-5.71,13.59-14.52,25.59-17.94l7.08-2.02c-4.25-.67-8.72-.84-13.06.23ZM966.08,329.79c-6.57-9.59-17.47-15.05-28.58-18.3-2.99-.88-5.85-1.39-8.45-.37,8.24,2.88,15.46,7.96,20.78,14.65,2.85,3.58,4.08,8.39,8.14,11.22,5.22-1.75,9.59-5.03,8.1-7.2ZM783.03,344.57c-1.68,1.78-2.61,4-1.07,6.18.42,2.71,4.4,3.54,5.73,4.92,2.42,3.6,4.19,6.53,9.36,5.28,14.38-3.47,34.04-15.53,26.31-26.63-1.34-8.26-6.31-5.48-10.13-9.54-.27-.69-.29-2.5-1.43-3.32-11.53,4.8-22.22,12.54-28.78,23.11ZM829.56,341.9c13.04-4.29,25.81-9.71,36.59-19.02-5.59,2.13-10.58,3.42-16.21,4.9l-23.63,6.2,3.24,7.92ZM954.19,342.03c-13.03-4.91-24.49-11.5-36.53-17.97,8.93,10.98,19.91,17.72,31.36,25.53.61-4.01,1.58-5.74,5.17-7.56ZM970.9,335.45c-8.28,4.23-12.12,2.68-13.63,8.15-1.47.22-3.45.77-3.62,2.39-.14,1.28-.85,3.58-.14,5.3,5.05,12.36,15.93,21.93,28.6,26.38,2.83-2.68,5.57-4.35,8.96-5.81,2.18-.94,4.06-1.53,5.09-3.63,3.87-7.95-11.86-26.44-23.38-34.26-.95-.64-1.48,1.27-1.87,1.47ZM768.69,362.37c-1.55,4.66-.25,10.09,3.69,14.59,6.08-8.44,17.55-6.62,15.65-10.24,1.14-7.09-9-8.45-10.9-16.58-5.55,2.63-6.87,7.51-8.44,12.23ZM858.6,373.74c0-1.13-.92-2.05-2.05-2.05s-2.05.92-2.05,2.05.92,2.05,2.05,2.05,2.05-.92,2.05-2.05ZM988.66,386.52c4.82,1.9,8.91,4.23,11.56,9.59,3.98-1.81,5.43-5.77,5.83-9.41.58-5.42.15-10.84-4.41-15.78-5.73,5.77-13.17,3.98-15.19,9.76-.71,2.03-.27,4.86,2.22,5.84ZM787.66,396.66c2.77,1.47,5.16,2.25,8.37,2.46l2.03-3.84,7.1.87c1.72-2.88,3.6-4.39,7.81-5.34-2.92-6.75-9.8-10.93-16.22-14.85-8.55-5.22-22.33.1-21.19,6.56s6.74,11.27,12.12,14.13ZM859.24,382.73c-2.75.85-4.5-1.39-6.71-2.27-2.88-1.15-6.5.54-8.84,1.05-3.69.8-7.26,2.02-10.92,4.15l-25.18,14.66-6.42,2.28c-4.64.21-9.09.07-14.4-.93.46,3.32,3.33,3.59,5.26,5.01l9.35,11.57,6.22,8.41,5.98,7.4c3.05,3.77,6.33,7.01,10.56,8.71,2.95,4.58,8.7,6.15,13.05,9.67l12.91,10.44c3.44,2.78,8.04,3.53,13.03,5.16-1.37,1.17-2.97.68-4.2.9-1.14-.66-3.12-.78-4.59-1.08l-4.03-.81c-.84-.17-1.7,1.54-1.35,2.04.3.43.72,1.56,1.65,1.94,13.68,5.63,29.23,7.39,44.35,5.7,2.12-.24,2.98-4.28,3.03-5.87-10.09,2.71-19.74,1.91-29.69.11-.89-1.4-3.2-.74-4.35-2.21,11.85.72,23.49,2.46,35.72-.56,4.8-4.69,10.59-8,17.56-8.31,1.88.24,2.86-1.02,3.8-1.55,2.86.71,5.55.09,8.1-.27,5.5-.78,9.61-4.22,13.94-7.63l13.22-10.44,13.56-11.21c2.11-1.74,5.07-2.52,7.53-5.38l-6.84-.58c-6.57-1.14-11.17-6.04-16.13-10.51l-12.14-10.93c-5.9-5.31-12.38-9.31-19.28-11.81-1.26-.46-1.97-2.93-5.3-1.86-1.45.47-5.14-.12-5.86-1.66-1.28-2.75-2.67-2.76-4.77-3.26-11.09-2.64-22.58-4-34.02-3.89l-8.85-1.29c-1.51,1.66-3.32,4.02-4.94,5.1ZM919.09,379.72c0-1.22-.99-2.21-2.21-2.21s-2.21.99-2.21,2.21.99,2.21,2.21,2.21,2.21-.99,2.21-2.21ZM744.52,390.65c-.29.61-.14,2.22.55,2.96l11.12,12c1.01,1.09,2.29-.92,2.46-1.73.71-3.4-12.26-17.22-14.13-13.23ZM955.94,405.67c1.39,1.58,2.28,4.19,4.44,5.52l3.1-.09c.92-.03,1.7,1.95,1.35,4.01l10.15,1.44c7.33-.49,14.15-4.49,19.15-9.55,3.71-3.76,2.36-9.16-1.33-12.03-2.22-1.72-3.99-2.83-6.58-3.27-10.4-1.75-23.89,5.04-30.28,13.98ZM792.28,422.4l-25.9-15.11c-1.32-.77-3.09-.21-3.92.24-.63.34-1.56,2.09-.89,2.87,3.92,1.76,8.23,5.28,12.73,5.66,4.81.4,8.77,6.51,17.99,6.34ZM1013.03,429.24c3.99-2.2,5.95-6.83,8.68-9.72,3.02-3.2,5.7-6.38,6.49-10.79-6.71,2.43-10.1,7.89-14.7,12.52-1.51,1.52-3.02,2.17-3.34,4.1-.23,1.39.6,5.13,2.87,3.88ZM790.52,436.75c1.44.37,1.3-.78.99-1.1-.35-.36-.94-.82-1.55-1l-18.45-5.48c-4.58-1.36-9.51-3.48-14.02-3.11-.84,1.11-.31,3.22.35,4.18.74,1.07,2.69,1.05,3.73,1.52,5.31,2.42,9.2,1.55,14.38,1.24l14.57,3.76ZM739.67,437.97l8.95-4.59c2.13-1.09,3.98-2.99,3.12-6.08l-18.67,9.78c1.7,2.93,3.92,2.26,6.61.88ZM977.24,439.56l-4.33,1.74c4.1,1.15,8.3.32,12.63-1.06l21.28-6.74c.64-.2-.16-2.12-.59-2.7l-1.27-1.73c-.59-.8-1.96.16-2.99.57l-24.74,9.91ZM763.85,450.71c.71,1.38,1.84,2.99,4.14,3l22.04.13,6.06-1.32c3.63-.79,7.4.93,11.07-.61-6.12-1.24-11.68-3.22-17.1-2.82l-27.12-2.81c-1,1.82.47,3.55.92,4.44ZM827.05,452.93c-1.28,1.05-2.49,2.19-3.02,3.63l-2.1.58c-4.33,1.19,3.57,2.89,6.68,6.88,1.32,1.7,3.13,1.94,4.32,2.85,2.9,2.22,6.9,2.93,10.14.88,4.65-2.94-3.74-9.39-11.09-14.05l-10.84-6.88c-.29.47-.31,1.16-.17,1.54l6.09,4.57ZM757.35,450.77c-3.11-.17-11.64,7.61-17.15,13.02,9.7,4.92,21.79-12.77,17.15-13.02ZM1008.33,457.19c2.51-.1,3.79-4.3,3.45-6l-25.97,2.25c.15,2.9,2.45,4.54,5.09,4.44l17.42-.68ZM980.9,457.55c.75-.84.26-3.69-.26-3.77l-19.33,2.99c6.82,1.26,12.87.56,19.59.79ZM1035.41,469.47l-16.71-13.46c-1.05-.85-2.82-.24-3.17.61-1.54,3.69,12.64,21.35,19.88,12.85ZM909.24,471.34c.83,2-.17,4.07.22,5.5.17.62,2.04,1.36,2.22.88.81-2.09,1.99-2.97,2.97-4.07l5.14,2.88c2.33-2.36,5.83-2.41,7.89-3.29.28-1.99-1.26-4.29-2.83-4.52-.5-1.01-.77-2.01-1.03-3.28.94-.31,2.8-1.34,3.27-3.54-7.79,3.11-17.24,2.09-23.94,8.8-1.21,1.21-1.47,2.77-.75,3.88.4.62,1.71,1.07,2.68.25l4.16-3.49ZM796.79,466.68c-3.36-.09-6.8,1.2-10.13,2.61l2.37,3.37c4.11,5.85,11.57,7.65,18.72,5.93s14.49-3.21,19.24-9.15c.67-2.09-3.89-4.05-5.93-4.03l-21.21.2c-1.35.01-2.44.26-3.05,1.08ZM983.86,477.94c.43-.91,1.27-1.33,1.22-1.82-.06-.52-1.52-1.34-2.14-1.44l-30.91-5.37c-5.11-.89-10.19-2.85-15.97-2.44-.21,1.66,1.39,3.2,3.04,3.67l14.07,3.96,27.69,7.54c1.51-.88,2.38-2.8,3-4.1ZM737.47,467.56c-2.2,5.51-2.11,11.36.18,16.72,2.66-7.4,3.69-15.58-.18-16.72ZM771.48,491.87c3.54,1.23,8.25,1.06,11.73-1.05,3.67-2.23,5.52-8.29,3.75-12.11-.71-1.54-2.71-4.05-3.98-4.66-4.1-1.99-11.37,9.85-11.51,17.82ZM950.83,493.75c.98-.57,2.8-.99,4.23-2.54-6.3-5-13.52-8.45-21.18-10.13-1.88-1.43-3.54-4.26-7.16-2.34-2.81,1.49-6.15,1.85-9.77.86,3.59,8.45,11.23,12.68,18.85,16.34,5.63,2.71,11.18,2.9,15.03-2.19ZM1003.18,497.47l-11.62-16.33c-.85-.95-2.09-1.65-3.01-1.37-3.65,1.12-.08,14.18,7.91,19.44,1.86,1.22,5.36.11,6.72-1.74ZM773.69,497.37c-4.68,8.15-1.28,18.66,6.63,23.47,2.17,1.32,3.67,3.13,6.78,2.87-1.82-2.78-2.88-4.84-3.8-8.28l4.47-1.06c.67-5.86.48-12.92-4.54-17.14-2.22-1.87-6.76-.74-9.54.14ZM958.84,518.96c4.23-5.63,3.58-15.7-.2-21.01-1.39-1.95-3.58-1.1-4.6-.69-1.76.7-2.06,2.86-3.18,4.39-2.71,3.69-5.52,7.64-2.92,12.26,1.74,3.09,7.54,6.95,10.9,5.06ZM998.31,520.85c3.72-5.48,5.09-10.9,4.66-17.07-2.38-.15-4.03,1.08-4.85,3l.2,14.07ZM946.54,520.02c-5.55,1.75-8.05,5.09-10.61,9.29-2.05,3.36-2.42,6.96-1.71,11.46-1.44,1.8-3.47,2.67-4.49,5.1,13.04.19,24.16-8.18,25.61-21.4l-8.79-4.45Z"/>
  <path class="bm" d="M352.02,112.49c.62.37,1.32.81,1.49,1.48,3.54,14.47,7.48,31.18,10.07,45.82l-1.69,1.6c2.83,6.82-9.25,2.59-9.89-1.78-.91.08-1.81.13-2.7.03-8.98-.96-30.6-20.47-37.4-27.96l-4.98-24c-.26-1.27-.35-2.46-1.49-2.94s-1.91,1.06-2.85,1.62c-18.63,11.29-36.13,23.23-53.32,36.55l-12.44,9.63-13.47,12.54-25.94,26.1c-24.1,26.96-44.55,56.25-61.82,87.75-4.74,1.08-7.97,3.33-13.37,3.62,38.16-72.78,88.19-129.83,157.09-174.58s153.86-73.54,238.75-80.93l24.49-.78c8.55-.27,17.27-.35,25.83,0l22.25.9c87.03,7.86,169.89,39.37,239.15,93-5.4-.32-8.76-3.68-13.19-5.13l-21.85-7.13c-17.09-10.25-33.48-20.13-51.56-28.53-27.9-12.96-56.65-23.17-86.59-30.35-10.34-2.48-20.1-4.94-30.64-6.35l-35.92-4.82-15.04-.85-36.96-.18c-2.91-.01-6.03,1.38-9,1.03-8.54-1.01-15.67.74-24.25,1.73-67.94,7.87-133.34,28.45-193.19,61.63,10.02,7.61,21.38,10.3,33.14,10.83,2.77.12,4.86.74,7.29.43Z"/>
  <path class="aj" d="M566.86,236.67l2.19,1.51c7.99,24.04,15.37,48.25,22.13,72.63l5.78,16.97c1.05,1.1.51,1.53-.93.89l-3.17-.71c-19.81-14.22-40.7-26.59-62.66-37.1l14.18,44.56-1.54,1.74-22.87-3.46c-9.83-1.49-19.44-1.45-29.28-.4l-11.61,1.24-22.6-70.3c24.51,5.45,46.76,13.04,69.93,22.53l-26.46-82.73c24.65,9.27,45.6,21.01,66.9,32.62Z"/>
  <path class="cm" d="M383.83,245.36l2.32,1.2,33.07,104.36-19.29,7.79-40.08,16.34c-2.97-9.4-4.02-18.1-5.89-27.57l-25.2-127.73c.64-.75,1.41-1.55,2.34-1.55,11.34,7.39,23.27,13.84,35.8,19.35,6.42,1.7,12.07,4.3,16.93,7.82Z"/>
  <path class="dk" d="M578.63,867.34l.51-3.86c.24-1.83,6.76-.54,10.81-4.36,2.28-2.15,1.88-5.44,2.15-8.32l1.12-12.07.96-15.09,1.13-15.93.9-15.05,1.03-17.89c.28-4.82,2.32-10.04-1.02-14.5l-10.25-3.58,1.34-8.16,64.08.71c11.38.13,22.68,5.77,28.41,15.64,7.08,12.2,5.29,28.12-2.41,40.05-7.21,11.18-19.69,18.19-33.87,18.41l-21.71.34c.94,4.29-.41,8.02-.7,11.96l-1.13,15.04c-.2,2.7-.43,6.03,1.3,8.01,4.11,4.72,12.67,1.16,13.77,6.6.39,1.96-.2,6.31-3.17,6.31l-51.86.07c-1.78,0-1.53-3.16-1.38-4.33ZM630.52,812.41l8.94-1.16c9.57-3.25,13.14-12.33,14.65-21.5,2.61-15.89-4.13-29.53-15.49-29.84l-11.02-.3-1.93,14.9-.85,13.27-.94,15-.88,8.65,7.52.98Z"/>
  <path class="fo" d="M401.97,483.86l15.03.06,1.15-2.01c7.56-.03,15.13-.07,22.7-.1l1.45,1.99c.25-.14.58-.06.6.2,5.5.64,11.1.41,16.48-.44.33-.05.57-.64.79-1.38,8.83-.14,17.65-.23,26.46-.26l1.46,1.99h45.6s.68-2,.68-2c33.09-.06,66.19-.12,99.29-.19l1.21,2,60.91.25,1.14-1.73,29.11-.32c1.14-.18,2.09.79,2.86,2.92l3.27,8.09c-12.34-1.15-23.44.41-35.15,2.69l-8.66,3.42-21.98,1.09-22.42.79c-10.31.36-21.97,2.3-31.06,1.82l-7.96,1.17c-1.84,1.79-1.92,2.45-.23,1.97l1.17,2.12,8.08.93,12.04.98c6.07.5,11.41.16,17.87,1.75l-26.34,3.48c-2.63.35-3.05,2.35-4.12,3.93-1.41,2.08-4.89-.2-6.64-.21l-58.72-.42-11.15-.93c-6.62-.55-12.94-.98-19.13-2.41l32.21-3.39,17.04-1.99c1.93-2.16.52-3.48-2.06-3.39l-7.96-.68c-3.98.87-7.4-.8-11.17-.81l-83.81-.22c-3.24,0-5.85.35-8.35,1.07-8.48-3.96-17.35-8.83-27.07-10.34-5.02-.78-8.37-2.27-12.9-4.29-7.84-3.5-17.12-2.42-25.39-3.64-.74-1.28-.3-2.79-.31-3.74.11-.77.31-1.86.89-1.99,2.54-.55,12.32-.65,13.07,2.15Z"/>
  <path class="dy" d="M911.83,862.53l.05,9.2-22.09-.04c-2.76,0-8.58.14-10.46-2.18l-20.52-36.53c-.33-.58-2.84-.52-3.41-.22-.98.52-.96,9.64-1.62,15.9-.41,3.87-2.18,8.2.6,11.76,1.5,1.92,4.86,2.1,7.34,2.34.55,3.07.58,5.48-.35,8.87l-44.28-.27c-2.35-1.03-1.17-8.11,1.79-8.46s4.75-1.33,6.14-2.67c2.19-2.1,1.87-4.69,2.1-7.47l1.03-12.11,1.05-18.01,1.04-17.96.95-13.03,1-17.93c.23-4.12,2.35-8.91-.65-12.74-1.78-2.27-5.49-2.73-8.31-3.43-.57-2.68-.54-5.05,0-7.87l36.24-5.51c1.37,5.66.19,10.92-.32,16.51l-.93,10.11-.44,18.81c-.08,3.38-1.28,6.56-.81,10.08.52,3.87-.57,7.25-.94,11s.75,7.34-1.53,11.34c2.73,1.7,4.56.41,6.27-1.51l7.62-8.52c4.01-4.48,9.1-8.61,11.74-14.23-.25-2.21-4.4-2.74-5.66-3.39-1.12-1.99-.68-5.32-.25-7.55,8.9-2.49,17.57-.75,26.9-.26,2.98.16,7.69-2.36,10.22,1.05.75,1.42,0,5.68-1.72,6.71-4.39,2.44-10.08,2.59-13.79,6.25l-17.13,16.88,21.61,35.89c2.64,4.39,5.16,8.07,11.53,9.17Z"/>
  <path class="fd" d="M470.02,104.81c-.42.54-1.02,1.45-.66,2.62l30,95.79c-23.02-8.34-44.81-15.97-67.45-21.26-2.34.51-2.46.06-2.19-2.18l-2.11-.13c-7.08-25.2-14.17-50.42-21.25-75.63l1.6-1.71,15.08-1.84c7.52-.92,14.36-1.2,21.95.09l25.04,4.26Z"/>
  <path class="au" d="M235.18,836.88l-3.6,35.77-88.35-.09c-1.74,0-1.01-4.16-.74-5.28l.69-2.89c.33-1.4,6.72-.63,9.58-3.37,2.1-2.01,2.26-4.22,2.26-7.37l-.16-82.73c-.01-6.15-10.05-4.39-11.33-6.64s-.7-5.53.04-8.44l53.28-.18.02,8.87c-6.81,1-12.95,2.19-12.95,7.27l.05,88.63,23.07.26c2.02.02,5.36-.6,6.63-2.24,5.09-6.59,7.89-14.05,11.56-21.55l9.96-.02Z"/>
  <path class="r" d="M327.68,851.99c-7.67,15.21-23.54,22.07-39.7,21.94-10.77-.09-21.45-1.78-29.59-8.35-10.92-8.81-15.71-20.21-15.7-33.99,0-13.05,2.83-25.95,12.92-35.68,13.58-13.1,34.95-15.36,52.73-8.64,14.02,5.3,22.88,17.86,24.33,32.7l.03,15.7c0,5.35-2.4,11.14-5.01,16.33ZM304.29,817.68c-.8-9.13-3.36-17.81-11.35-23l-9.94.29c-1.58.05-4.02,2.37-5.05,3.61-5.23,6.34-5.85,14.13-6.25,22.09-.22,4.44-1.39,8.67.48,13-1.57,14.06,4.68,30.74,17.21,30.11,15.8-.8,16.4-28.83,14.89-46.09Z"/>
  <path class="r" d="M429.18,840.49c6.11-13.97,30.78-16.68,46.34-20.14.86-5.68.73-11.37-.42-16.63-1.48-6.73-6.31-10.18-13.32-9.05-1.67.27-4.02-.48-5.43.92-3.41,3.38,1.24,13.85-4.95,17.59-4.31,2.61-12.05,2.21-15.95-.79-3.39-2.61-3.86-7.92-3.14-11.5.81-4.02,3.28-7.12,7.44-9.49,13.75-7.84,29.71-9.89,45.11-5.62,9.58,2.65,16.86,10.76,16.95,20.96l.48,50.58c.91,3.16,6.91,4.17,9.82,3.05,1.48,2.29,1.06,4.55.54,7-6.23,3.3-12.55,6.33-19.61,6.4-8.05.08-13.89-4.19-16.98-11.7-10.6,12.4-28.97,16.01-41.64,6.18-8.23-6.39-9.37-18.35-5.26-27.75ZM474.82,854.27c1.75-8.77,1.12-16.32,1.06-24.71-12.08.47-21.69,5.37-22.77,16.81-.41,4.4,2.02,8.51,5.6,11.71,5.58,1.75,12.14.92,16.11-3.81Z"/>
  <path class="eo" d="M407.95,102.31l21.77,77.47c1.93,1.62.78,2.96-1.86,3.12-20.92-4.34-41.58-9.62-61.96-15.82l-.84-2.33c-3.35.48-4.41-.64-3.16-3.36l-10.28-45.45c-.3-1.34-.26-2.32.41-3.45,11.13-1.39,22.35-2.81,33.84-5.88,7.6-2.03,14.85-3.42,22.09-4.3Z"/>
  <path class="eo" d="M352,159.61c2.07,2.76,2.98,6.35,2.74,10.78,1.55,20.45,11.69,16.72,5.33-.59.1-2.68.61-3.91,3.03-2.1.78-.14,2.01-.2,2.18.33,8.11,25.46,15.37,52.2,21.97,77.94-1.54.49-2.68.29-3.42-.6-17.38-4.62-33.46-12.51-48.87-22.63-2.05-1.35-3.74-2.83-6.2-2.99l-6.73-35.26-10.13-52.8c1.55.08,2.9.74,4.17,1.95,10.9,10.47,22.97,18.92,35.93,25.97Z"/>
  <path class="eo" d="M555.94,808.7l-.54,1.22.07,46.74c.01,1.01.65,3.18,1.74,3.69l8.16,3.83c1.77.83,1.03,5.99-.66,7.45l-45.46-.09c-2.08-1.29-2.26-7.52.18-8.12,3.96-.97,9.23-2.05,9.29-6.89l.72-64.29.26-27.46c.04-4.67-5.72-6.45-9.95-6.6-1.33-2.78-1.1-5.4-.49-8.61l36.54-5.37.14,64.5Z"/>
  <path class="ah" d="M960.9,872.22c-12.88,3.28-25.45,1.12-37.59-2.87-1.77-.58-3.28-.81-4.32-2.23s-.21-3.29-.07-5.34c.43-6.55-.95-12.69,1.25-18.85,2.75-.46,5.8-.48,8.52,0,1.78,5.9,3.44,11.75,7.92,16.23,4.82,4.81,13.66,6.09,19.3,2.82,4.01-2.33,5.21-5.98,5.22-9.74.01-4.11-2.35-7.17-6.66-9.18l-21.76-10.13c-10.27-6.12-13.53-18.23-10.07-29.57,6.51-21.33,37.35-24.24,58.25-13.79l-.17,11.08-1.14,9.16c-.29,2.3-7.55,3.12-8.45,1l-4.52-10.75c-4.59-7.09-14.18-8.8-20.4-3.25-4.16,3.72-4.1,9.14-.2,12.92,7.92,7.65,26.62,8.46,34.72,22.03,4.69,7.87,4.22,17.19.13,25.89-3.23,6.86-10.75,12.23-19.98,14.57Z"/>
  <path class="r" d="M400.65,856.92c5.4-1.42,9.65-3.49,13.53-7.32,1.73,1.47,3.97,3.22,4.6,5.03,1.02,2.95-2.46,3.95-3.43,5.22-7.39,9.65-18.36,13.41-30.36,14-17.86.89-33.54-9.02-39.13-26.18-6.07-18.65-2.16-39.93,12.95-53.13,15.03-13.13,42.39-15.12,58.05-1.66-.39,5.84,1.64,12.31-1.27,17.89-2.36,4.52-11.79,5.36-15.6,2.01-5.15-4.52-.69-17.82-9.72-18.55-17.57-1.41-22.55,26.45-17.31,46.35,3.28,12.45,14.67,19.77,27.7,16.33Z"/>
  <path class="p" d="M767.99,820.67c-.82,4.65-.82,9.43-.03,14.08-.01,7.58,3.33,16.29,10.64,20.21,9.96,5.35,21.34,1.99,29.7-5.09,2.04,1.37,3.98,2.96,5.22,6.18-13.57,17.78-38.09,23.57-57.57,11.45-20.16-12.54-21.97-48.99-2.92-69.93,14.36-15.78,39.4-18.22,56.97-7.46,6.45,3.95,4.62,18.25.94,21.7-3.44,3.23-10.89,3.51-14.55.57-6.04-4.85.1-18.57-10.69-18.13-12.08.49-17.7,14.29-17.72,26.4Z"/>
  <path class="dj" d="M750.99,907.99l-14.04.97-12.05.87-35.96,3.93-30.96,3.84-13.39,2.59-24.03,3.99-25.1,5.08c-1.24-4.82-.12-9.29,1.18-13.29,33.97-6.78,66.73-11.8,100.52-14.84l12.8-1.15,14.02-.97,15.89-1.04,20.04-1,50.55.3,21.88.99,16.32.84c31.65,1.62,62.73,6.08,93.49,13.14l-25.1-2.45-10.19-.79-10.84-1.05-11.99-.99-18.03-1.1h-89.01s-15.1,1.1-15.1,1.1l-10.89,1.02Z"/>
  <path class="fm" d="M347.35,908.08l-15.28-1.09-15.13-1.11-79.39.27-17.61.81-13.01.97-10.95,1.01c-2.84.26-5.94,1.53-9.07.67l-34.18,3.63c30.69-6.68,61.6-11.79,93.17-13.7l17.1-1.03,13.98-.75,13.97-.89,49.49.4,18.42.81,13.17.83,14.76,1.19c37.64,3.04,74.47,8.36,111.67,15.98l1.57,13.08-57.1-10.25-36.95-5.15-33.95-3.95-11.06-.87-13.62-.86Z"/>
  <path class="bb" d="M688.15,862.69c3.33-.53,5.17-1.64,6.35-3,1.8-2.08,1.37-4.47,1.59-6.91l1.11-12.06.91-14.1c.57-8.87,1.6-17.5.46-26.31l-7.89-3.51c-1.77-.79-.68-6.25.85-7.44,2.8-2.17,7.05-1.22,10.25-1.81l19.69-3.6c1.66-.3,6.09-.14,5.51,2.66-1.28,6.16-.76,11.94-1.26,18.11l-.99,12.03-.98,18.03-.97,16.93c-.15,2.65-1.7,4.9.22,7.45,1.52,2.02,3.72,2.97,7.25,3.74,2.83.62,2.37,7.78-.18,8.68l-43.99-.22c-2.35-.97-1.19-8.14,2.07-8.65Z"/>
  <path class="el" d="M251.91,515.99l-6.78,6.97-5.62,6.34c-1.99-8.04-7.07-14.33-14.54-17.58-19.21-8.36-42.8-9.97-55.55,7.31-2.53-8.95-16.76-14.02-22.48-14-.09-2.09,1.14-2.89,2.46-3.85l10.42-7.64c3.06-2.24,6.26-4.71,7.19-8.77-10.82-3.9-21.72-3.86-33.15-5.61,14.72-3.52,30.22-8.01,45.88-5.1,12.11,2.25,20.94,12.45,28.42,21.48,7.61,2.25,13.98,5.2,20.56,9.42l12.58,4.4c3.99,1.4,6.58,5.32,10.64,6.65Z"/>
  <path class="eo" d="M596.03,328.66l.4.99c-3.17,2.02-5.74,4.48-7.72,7.36-5.59,2.72-10.69,6.2-15.29,10.45l-1.26-.76-10.37-3.82-18.96-5.72-15.9-49.96c25.29,10.82,47.76,25.4,69.09,41.46Z"/>
  <path class="fl" d="M644.97,312.93l-2.01-.84-.2-11.85c-4.53,8.56-9.53,16.87-14.99,24.94,4.7-5.04,9.69-9.1,14.96-12.18l1.49.69c1.18,1.1,1.82,2.78,1.82,4.96l-.02,14.13c0,1.07-.4,1.77-.99,1.97l-2.01-1.09-.15-12.64c-21.31,18.11-42.3,36.86-54.13,63.32,13.21,5.49,19.81,8.24,19.81,8.24l.55,2.34c.25,1.67-.84,2.72-1.82,2.73l-4.33.05c-.32-1.06-1.6-1.6-3.85-1.61l-13.4-5.02c-1.44,4.56-3.68,7.77-6.74,9.63-1.14.14-2.23.26-3.1-.68l-1.39-2.37,4.91-9.83c-4.96-4.38-10-3.28-15.1,3.3l5.05,3.06c3.85,2.23,5.1,4.54,3.76,6.92-1.2,1.14-2.08.81-3.33.95l-1.81-.22c-1.3-1.77-10.1-7.16-11.66-7-.95.1-13.99,8.07-14.31,9.73-.08.42.13.9.43,1.39-2.89,1.33-6.76,1.59-9.69,0-1.16-1.61-.48-3.46,2.04-5.54.13-4.58,1.46-8.01,5.53-3.57.64-.12,10.46-6.94,10.73-7.54.49-1.06-7.61-10.84-10.83-10.32.26,4.88-2.53,9.45-5.85,4.24l-.99-8.36c-2.7,1.72-4.89,2.04-6.57.94-.02-.21-.06-.43-.15-.62l.45-3.02c.69-.65.25-2.13-1.32-4.45,0-.9,1.19-1.74,2.17-1.85l2.22-.84c2.33,2.33,5.36,1.87,9.1-1.38l-12.06-10.37c.08-2.23-.39-2.69-1.4-1.38,0-.71-1.52-1.45-.82-2.68.35-.62,1.25-.72,1.97-.59l18.26,15.51c9.57-5.41,18.22-11.5,26.95-17.42l7.61-5.17,16.26-12.87c.27-.21.52-.74.93-.89.93-.34,2.31-.9,3.19.13l.08,2.51-7.23,5.56-.13,16.15c-1.32,3.81-3.98,4.51-5.91.71l-.09-10.91c-.28-.59-9.32,4.91-9.49,5.45-.53,1.72-.6,23.76.43,23.18,10.69-9.09,20.88-18.68,30.57-28.79l24.93-37.81c3.47-3.38,5.31-5.77,5.54-7.17-.45-.07-1.04-1.46-.73-1.81l6.85-5.12c1.33,7.35,1.22,14.8.77,22.77-.03.43-.57.52-.78.3ZM571.36,378.57c1.34-.63,1.68-1.67,1.66-2.82l-.16-26.55-24.18,15.13c7.64,5.54,14.76,9.87,22.68,14.25ZM574.94,380.21l8.41,3.95,6.2-11.79,6.51-10.85-10.03,8.24-11.09,10.45ZM563.07,384.8c2.69-1.88,4.47-2.96,5.95-4.76-8.6-4.49-16.14-9-23.58-14.08-3.42,1.67-6.45,2.69-8.67,5.5l9.03,5.33,17.27,8.02ZM559.54,386.56c-2.85-2.46-4.86-2.75-7.64-2.85-.05,2.25,1.66,3.4,2.83,3.77,1.7.53,3.34.8,4.8-.92Z"/>
  <path class="bo" d="M831.2,512.74l-3.83-1.09c.64-1.25,1.21-2.41,1.74-3.49l15.94-1.13,49.84-.32,6.05,1.09c3.21.58,6.69-.44,9.8,2.34l-26.42,3.88c-1.09.16-2.06.72-2.34,1.28-.32.65-.08,2.35.53,2.38l2.39.09c5,.19,9.25.78,14.07.87l9.9.18c3.19.06,5.74,1.21,9.12.83-.05,2.78-.69,4.77-2.29,7.08l-71.64-.19-10.17-.86c-3.13-.26-6.62-.15-8.98-1.33,1.35-2.87,4.51-1.17,5.81-1.63,4.79-1.69,8.52-1.74,13.1-2.32l16.63-2.11c.19-4.7-9.55-3.09-21.46-4.51-2.93-.35-5.51.19-7.81-1.05Z"/>
  <path class="r" d="M550.29,938.85c-1.85-1.27-3.99-1.65-5.69-.54l-16.73,10.88,6.06-21.12c-4.72-4.78-9.79-8.62-15.18-12.18-.25-1.59.74-2.31,2.07-2.31l13.15.03c1.69,0,4.91-.62,5.54-2.17l7.77-19.17,6.21,16.81c1.14,3.1,2.9,4.65,6.47,4.74l16.7.41-9.45,7.72-7.15,6.01,3.48,12.15c.83,2.9,1.76,5.49,1.26,8.71l-14.52-9.95Z"/>
  <path class="am" d="M314.82,516.73c-3.81-3.6-9.02-5.76-13.9-7.79l2.95-3.42c1.91-2.05.08-5.24-2.18-6.52-5.31-2.99-10.82-4.15-16.69-5.41l-25.19-5.4,40.19-.46c4.43-.05,9.91-.03,13.71,2.27l24.33,14.68c8.94,5.39,16.88,11.19,26.23,15.75-4.17.2-7.69.06-11.38-.7-12.85-2.63-25.24-4.11-38.07-3Z"/>
  <path class="dp" d="M1106.47,813.59l-15.4.92-17.03.95-21,1.02-18,1.02-21.04.32c-2,.03-3.8,1.37-6,.7.25-3.56-.83-8.01.51-11.55.98-2.59,5.56-.61,7.53-.54l13.93.46,15.07.98,20.98,1.13,20.04.96,15.89,1.05,17.23.89c-3.75,1.87-7.87,1.42-12.69,1.71Z"/>
  <path class="ev" d="M60.02,813.92c-6.24-.36-11.77.16-18.14-1.24-2.9-.64-7,1.58-9.58-2.71,10.37-.85,21.32-1.68,31.64-2.13l14.53-.63,20.92-1.04,19.43-.72c1.54-.06,5.33-1.94,6.41.11,1.73,3.29.45,8.26.71,11.83-4.85,1.37-9.33-.2-13.92-.48l-15.97-.97-18.03-.98-17.99-1.03Z"/>
  <path class="cq" d="M578.48,537.39l-17.51,1-49.92.19-9.08-1c-5.02-.55-10.04,0-14.86-3.02,5.37-2.11,9.96-2.35,15.18-2.47l36.33-.79c7.02-.15,13.65-.19,20.68.02l27.21.83,20.4.55c.84.02,1.85.97,1.95,1.46s-1.34,1.73-1.9,1.63c-4.6-.83-8.6.47-12.97.71l-15.5.87Z"/>
  <path class="eu" d="M703.09,769.04c-3.49-4.75-2.94-12.71.03-16.85,4.07-5.67,10.44-7.64,16.58-5.87,5.45,1.57,10.28,6.65,10.09,13.31-.18,6.08-4.03,12.19-9.96,13.76s-12.9.88-16.75-4.35Z"/>
  <path class="dd" d="M711.12,354.59c-5.02,4.14-11.55,5.06-17,8.05l-5.18-12.17c.07-.94-1.25-.87-1.15.3-.76.5-1.28-.18-1.57-2.04.01-2.27.97-3.79-.58-6.8s-.39-7.23-.64-10.21c3.84-.36,4.13,8.42,8.67,8.72,1.86.12,3.53-.99,5.53-2.85l10.6,9.7-3.97,4.46c2.77,4.56,5.03-3.36,7.2-1.57.51.42,1.54,1.56,1.23,2.03-.47.72-1.92,1.06-2.84.88-1.18.17-1.16.99-.3,1.51Z"/>
  <path class="fh" d="M145.05,314.48c6.48-4.67-7.2-9.47-18.26-12.2,15.42-6.65,22.05,4.61,25.66,4.59,2.12-.01,3.21-1.17,4.86-2.98,4.87-5.32,13.58-6.95,20.02-3.74-8.31,1.76-15.11,5.19-19.28,11.48,1.24.72,1.76,1.3,1.9,1.69.48,1.3-8.55,5.96-14.9,1.16Z"/>
  <path class="ab" d="M496.08,348.7l-5.32,6.95c-23.62,21.17-47.98,41.75-75,58.52-1.75,3.42-2.48,7.43-2.2,12.04-3.4,1.99-5.02-.39-4.86-7.15l-19.46,9.59c-3.14,1.49-5.24,1.21-6.3-.83,35.2-16.33,70.57-43.61,99.75-70.27,4.67-4.27,8.01-9.02,13.28-11.78l.11,2.92Z"/>
  <path class="cc" d="M519.9,346.66l-3.1,3.34c-.72.77-.54,3.12.94,3.4l1.03,1.18c-.83,3.79-.28,4.94,1.65,3.45.5,2.19.77,3.67-.03,5.78-.66,1.37-1.75,1.56-3.29.55,1.09,1.67,2.01,3.39.16,4.66-.6-.34-1.86-.48-2.26.15-.2.31,0,1.23-.07,1.6-1.63.8-2.96.04-3.99-2.27-1.76,3.65-3.85,5.35-6.25,5.11-.06-.22.5-1.15.39-1.42-.33-.8-1.11-.38-1.17-.07-.05.27-1.18,1.16-1.44,1.05-1.94-.78-2.14-4.26-.64-5.71,2.51-.27,2.49-1.29.09-1.8-.79-3.41-1.37-6.96-.75-11.31-.96-1.52,1.29-2.74,2.01-.95.27,4.88,1.39,5.94,3.36,3.16-.56-3.45-2.17-7.24-2.3-10.45,2.15-.5,4.2-.62,6.51-.29,3.25,1.07,6.34,1.26,9.16.82ZM515.96,349.97l-10.54-1.03c1.84,3.32,4.08,3.47,6.06,5.67l4.48-4.64Z"/>
  <path class="cz" d="M146.57,343.47c-3.4,1.83-2.61,4.44-3.57,6.22-2.5,4.61-9.09,3.51-12.86.49,5.33-4.28-4.46-7.84-14.51-12.11,7.37-3.79,15.87-.55,21.08,5.97l9.93-6.61c2.89-1.92,7.36-1.16,11.06.04l-11.13,6Z"/>
  <path class="bf" d="M728.89,484.85c-.73-.49-1.7-.94-2.93-.92l-30.48.34-60.6-.54,61.4-.04.66-6.78,8.88-1.18c4.86.98,8.56.36,13.21.56l8.81.37c.17,3.18.08,5.81,1.04,8.19Z"/>
  <path class="de" d="M421.31,534.58c4.24,2.02,8.56,3.05,12.97,3.09,1.16-.76,1.89.66,1.15.94-3.85,1.4-6.8,2.17-10.43,2.16l-19.08-.03c-.73,0-1.36-.93-.97-1.68l9.85-1.43c.82-.4,1.31-1.16,1.48-2.28,1.74-.57,3.23-.59,5.03-.77Z"/>
  <path class="fp" d="M714,130.45c-3.95.45-7.02,3.5-10.18,4.94-3.9,4.39-12.98,8.78-18.83,10.49l-2.05-1.29-1.13-1.41c4.1-1.55,8.84-3.18,13.12-5.61l18.88-10.72.2,3.6Z"/>
  <path class="bg" d="M845.05,507.03l-13.75,2.03c-.62.09-2.27,1.53-2.25,2.15s1.93,1.04,2.14,1.52l-7.04-.14c-2.47-.65-2.06-1.83,1.21-3.53l-.39-1.33c.28-.51.85-1.1,1.9-1.1l18.17.39Z"/>
  <path class="eh" d="M555.47,856.66l-.6-46.87c0-.71.77-1.19,1.07-1.09l-.47,47.96Z"/>
  <path class="ep" d="M604.93,503.92c.56.21,1.56.78,1.61,1.35.06.75-.41,1.86-.67,2.74-4.55-.52-8.89-.4-13.1-2.8,4.71-1.06,8.23-1.63,12.16-1.29Z"/>
  <path class="bz" d="M416.28,535.35c.69.5,1.46,1.19,1.67,2.04-3.64,4.39-8.53.56-13,1.67l11.33-3.71Z"/>
  <path class="ax" d="M917.99,313.53c2.63,1.88,2.19,4.65-1.11,5.17-2.09-1.09-4.62-1.79-5.9-4l.35-1.74,6.66.58Z"/>
  <path class="ej" d="M670.97,516.7c.38,0,1.19-.47,1.96.6-3.07.82-7.31,2.5-11.11,2.42-.63-.8-.74-2.7-1.88-3.04,3.32-.65,7.58-.88,11.03.03Z"/>
  <path class="eb" d="M635.91,519.15c-5.25,1.84-10.8,2.58-16.11-.15l16.11.15Z"/>
  <path class="dl" d="M567.02,509.73c.72-.76.96-1.6.5-2.12-.86-.94-1.7-1.04-2.55-1.27,1.5.13,2.95-1.43,5.59.27l6.5.55-10.03,2.56Z"/>
  <path class="dm" d="M824.95,219.63h-22.99c.11-.6.86-.98,1.93-.98h19.13c1.08,0,1.83.39,1.92.98Z"/>
  <path class="bi" d="M824.16,512.59c-1.95-.04-3.57-1.02-6.29-.97,1.37-2.89,5.46-.88,7.11-3.89,1.21-.01,2.54.28,3.14,2-2.34.27-4.11,1.2-3.96,2.86Z"/>
  <path class="bz" d="M434.28,537.67c-3.35,1.98-7.28-.19-10.42-1.85l-2.47.64c-.46.12-.68-1.23-.09-1.88,2.84-.28,4.48.88,6.89,1.82,1.96.76,4.38,0,6.08,1.27Z"/>
  <path class="er" d="M670.97,516.7l-11.03-.03c-1.4,0-3.18.58-5.04-.62l14.13-.4c1.08-.03,1.83.38,1.94,1.04Z"/>
  <path class="cx" d="M767.96,834.75c-1.55-3.45-1.55-10.66.03-14.08l-.03,14.08Z"/>
  <path class="fj" d="M260.03,369.79c2.7-2.2,6.33-2.53,10.88-.99,5.27.28,9.08,2,11.45,5.16l8.7,103.57h-43.42c-.78-.08-1.95-.31-2-.86-.26-2.5-.35-19.29.59-20.26.32-.33.8-.52,1.33-.66l-.24-39.54-1.57-.69-.36-45.18c3.95-1.7,10.22-1.35,14.65-.56Z"/>
  <path class="ex" d="M354.45,486.52l-30.94-.27c-7.05-5.79-15.28-8.31-24.9-8.19l-3.9-41.37,86.57,7.67.27,43.15c-8.94-1.19-17.48-1.73-27.1-.99Z"/>
  <path class="bl" d="M247.56,455.75l.09,21.78-19.34-.03c-6.13-3.9-11.58-8.25-18.29-10.86-6.15-2.39-12.5-2.67-18.94-3.73l3.68-45.68c16.46-1.97,33.24-3.74,50.02-3.05l2.55,1.31.24,40.26Z"/>
  <path class="dx" d="M247.12,368.85c-.34-3.15,11.79-2.46,12.94-1.72.73.47.47,1.73-.02,2.66l-12.71.12.44,47.79-.21,38.05-.67-39.56c-17.48-.26-34.53-.02-51.56,3.65-.59-.84-.54-1.88-.59-2.61l4.05-44.28c.71-.69,1.43-1.34,2.24-1.87,5.27-3.47,37.82-6.24,43.59-3.7.88.39,1.7.91,2.5,1.47Z"/>
  <path class="as" d="M246.91,321.5c.78,0,1.98.18,2,.67.67,12.95.75,28.81.18,41.74.59,2.74-.07,4.38-1.98,4.93-16.17-.98-32.42.4-48.33,4.1l4.01-47.42,1.26-2.17c3.24-1.21,13.54-3.78,14.91-.23,1.89-2.55,10.26-4.2,12.4-1.6,2.15-3.87,12.97-3.34,15.53-.02Z"/>
  <path class="db" d="M247.1,271.85l2,.93-.05,45.7c2.52.12,3.52,1.18,3,3.17.25,2.98-4.69,2.68-5.14-.15-5.09-.14-10.59-.86-15.53.02l-2.26-2.8-.08-16.95c-2.4-.05-4.72.26-6.97.95l-1.02,19.07-2.07,1.34c-5.44-.47-10.72,1.9-16.18,2.4l3.78-48.46c13.61-5.13,26.91-6.19,40.53-5.21Z"/>
  <path class="fb" d="M252.04,321.65c.56-.48,1.14-.93,1.79-1.26,3.72-1.91,22.52,1.84,24.91,6.72l3.62,46.85c-7.41-2.54-14.89-4.24-22.33-4.17-.2-.73-.9-1.15-1.98-1.14l-10.94.2-.21-47.34,5.14.15Z"/>
  <path class="ad" d="M278.74,327.1c-8.55-3.39-17.59-5.2-26.7-5.45-.81-.89-2.31-1.15-5-.56l.06-49.24c9.55.68,18.75,1.93,27.45,5.97l4.19,49.28Z"/>
  <polygon class="at" points="635.04 475.84 634.88 483.72 533.69 483.91 533.96 475.81 635.04 475.84"/>
  <path class="ek" d="M320.07,408.67l23.57,3.35c1.91.27,3.66,3.34,3.95,4.8,2.21,1.51,3.17,2.97,2.94,5.68,2.41,1.59,10.33,9.28,10.39,11.54.03.99-.3,1.87-.91,2.66l-35.04-3.06c-.86-.27-.81-.56.08-.88-.13-2.74,2.3-2.73,3.86-1.06l.94-1.39c-4.87-8.52-11.14-15.36-18.81-20.5-1.52,1.2-2.04.62-1.07-1.11,2.6-1.12,7.05-.75,10.11-.03Z"/>
  <path class="am" d="M441.95,513.51l-33.3-.42c-9.75-12.33-34.06-9.84-51.02-15.78,16.8-1.25,33.23-.32,50.23.44,3.87.34,6.81,2.35,10.08,3.96l24.01,11.8Z"/>
  <path class="dv" d="M304.19,406.37l-.24,1.38c7.7,7.86,14.73,16.2,21.1,25.01l-.08.88-15.41-1.62c-.62-.07-1.64-2.26-2-1.92l-1.72,1.6-11.39-.65-2.58-26.23c4.66.41,8.42.67,12.32,1.55Z"/>
  <path class="ci" d="M496.2,356.75c-1.64,4.73-3.49,9.4-5.55,14,1.95-1.8,3.45-1.82,4.52-.06.75.91.96,1.88.93,3-6.23,3.71-18.62,15.83-18.78,20.12l-.67,17.89c-.1,0-.47-.08-.67-.51l-.58-17.61c-4.36,2.13-9.6,5.16-11.79,9.69-2.34,4.86.52,10.93.49,15.75-1.1.71-2.2.19-3.13-.06-1.71-2.79-2.37-6.35-2-10.68-7.27,6.35-15,11.26-23.18,14.71,1.86-.64,2.68-.34,2.46.89-2.17.92-4.31,1.82-7.19,1.78-.2-1.31-.02-2.06-.05-2.95l28.44-21.62,8.86-6.86c7.48-5.79,12.35-11.98,15.57-20.84l12.21-23.7c-.01,2.41.43,4.66.12,7.04Z"/>
  <path class="ez" d="M677.04,348.75l.95,5.96c-1.42,4.64-3.65,8.88-6.7,12.73l4.57,6.49.22-11.33,2.03-1.36c1.36,7.49,1.77,17.13-1.2,23.43l-1.49.66c-3.66-2.41-6.8-5.95-9.44-10.64-2.54,2.06-4.84,4.79-6.9,8.18l-2.43-.07c-.93-.7-1.35-.03-1.92-.07-2.73-.17-1.96-23.63-1.09-34.98,1.01.3,1.92.83,2.51,1.67l9.87,13.93,6.38-9.26c1.41-2.05,2.32-4.5,4.64-5.34ZM663.06,366.6l-8.97-13.02.2,24.7c3.9-4.3,6.16-7.55,8.77-11.68Z"/>
  <path class="b" d="M663.85,300.83c1.02-.28,1.3.04.84.98,1.82.02,3.64.99,5.46,2.9.72-2.27,1.99-3.17,3.79-2.69.21-.9.48-.8.8.17,5.02,2.03,3.39,8.06,2.37,16.79-1.51-.35-3.02-1.43-4.53-3.23-2.19,2.79-1.56,6.3,1.86,10.51l-1.18,2.08c-1.54.91-2.16,2.09-2.57,3.56-1.14-2.07-3.26-4.08-3.97-7.4-2.79.43-3.75,2.57-4.78,4.14.45-.34-.17-2.3-.7-2.09s-1.1,1.28-2.39-.07c-1.43-1.77-1-3.85,1.3-6.22-2.3-4.28-3.94-8.56-4.93-12.85-.79-.75-2.87-2.13-2.17-3.21s2.2-1.46,4.03-1.71c-.81-.97-.91-1.91-1.24-2.75.45-.28.91-.5,1.37-.51,1.53-.02,6.15.46,6.62,1.6ZM665.04,315.63c2.45-1.31,3.29-3.08,3.77-4.67.71-2.35-4.61-6.83-5.35-6.82-.92.01-3.32.44-3.79,1.57l5.37,9.92ZM676.63,314.69l.11-9.79c-1.07,1.17-2.7,3.03-2.78,4.51-.11,1.94,1.11,4.38,2.67,5.27Z"/>
  <path class="fa" d="M223.98,231.64l-12.03,3.32.7-27.11c4.03-1.66,7.35-2.57,11.5-3.44l-.17,27.22Z"/>
  <path class="eg" d="M268.51,234.78c-3.64-.79-7.05-2.39-11.83-2.53l-.17-27.96c4.42.64,7.68,1.8,11.17,3.62l.83,26.87Z"/>
  <path class="bx" d="M370.99,437.69c-5.76-3.84-11.06-8.39-15.89-13.65-1.43-1.99-2.54-3.81-.18-5.38,2.22-.51,2.27-3.11,3.89-5.69l25.46,25.64-13.29-.91Z"/>
  <path class="m" d="M488.22,475.8l-.13,8.11-25.23.18c-6.87.05-13.7,1.79-19.95-.09l16.37-.4c.28-2.74.33-5.58-.27-7.72l29.21-.08Z"/>
  <path class="fl" d="M644.98,380.71l-.29-37.48-12.3,22.92-14.28,27.84c-.26.51.66,1.16,1.15.8-.53.69-1.33,1.82-2.57,1.47-.57-.16-1.29-.67-1.67-1.37l13.13-27c4.24-8.47,8.25-16.53,13.51-24.5.86-1.3,1.18-2.59,2.83-2.87.68,1.02,1.53,2.28,1.53,4.15v34.08c-.01,1.11-.37,1.84-1.03,1.97Z"/>
  <polygon class="aq" points="443.15 475.72 442.3 483.8 417.01 483.92 416.78 475.92 443.15 475.72"/>
  <path class="af" d="M251.17,203.6c2.58-.1,1.52,17.33,1.72,27.82l-8.16-.8-2.04-1.04,1.04-9.98c-1.46-2.59-2.06-4.86-1.79-6.79-1.29-2.14-1.43-2.81.97-3.64,4.38-.49,7.15-1.65.73-2.36-2.57-.28-4.11-.5-3.07-3.5l10.6.3Z"/>
  <path class="c" d="M304.19,406.37l4.86,1.1c1.05.15,1.35.57.91,1.24l1.07,1.11c4.24,1.88,8.59,6.8,11.64,10.45,2.33,2.8,6.98,8.46,6.23,11.44-1.08,1.16-2.68.83-3.86,1.06-2.61.5-3.15-.64-4.53-2.71-5.84-8.79-13.58-15.68-20.57-23.13l4.23-.55Z"/>
  <path class="w" d="M517.99,381.66c.68.76,2.1,1.76,2.12,3.04l-1.35,4.29c-3.55,2.2-3.63,4.91-.24,8.12-.02,1.62.58,2.47,1.8,2.54l-1.14,7.01-2.46.45-5.92-8.04c-2.1,1.59-3.89,3.53-5.38,5.83l-2.5-.04-1.17-6.14,3.47-6.55c-1.46-2.07-2.7-4.28-3.73-6.65l2.51-3.95,6.28,8.24,7.71-8.14Z"/>
  <path class="cn" d="M251.17,203.6l-10.32.4c2.43,1.53,5.2.35,7.82.85.71.89.46,3.38.22,4.21-.84,2.85-6.55.41-6.95,3.74-.96.71-1.96.72-2.94.09-2.25.43-5.35,1.19-9.3,2.29l-1.78-1.64.08-9.81h4.96c6.01-1.61,12.54-1.46,18.2-.13Z"/>
  <path class="ce" d="M354.93,418.66c.43,1.52.89,3.45,2.29,4.75l11.97,11.1c1.06.99,1.63,2.12,1.81,3.18l-10.98-.99c-2.38-5.25-6.28-9.12-11.11-13.17l-1.31-6.71c2.27,1.39,4.89,1.46,7.34,1.84Z"/>
  <path class="et" d="M239,212.89c1.44,1.8.82,3.93-1.88,6.38,1.9,4.95,1.58,8.74-.98,11.37l-8.23.79v-17.9s10.31-2.38,10.31-2.38c.52-.12,1.01,1.5.78,1.73Z"/>
  <path class="j" d="M241.94,212.8c6.82,6.07,2.29,10.21,2.79,17.82l-8.59.03c.13-3.78.02-7.61-.91-11.64l3.76-6.11c.69-.54.88-1.1,1.08-1.61.5-1.31.35-.23,1.86,1.52Z"/>
  <path class="cg" d="M676.31,295l-1.57,7.19c-.2-.08-.53-.15-.8-.17-3.47-1.19-.79-.67-.79-.32,0,.74-7.42,2.09-8.45.11-.16-.37-.5-.7-.84-.98l-1.14-1.15c-3.19.62-5.57.01-7.15-1.81-1.51-1.09-2.03-3.35-1.86-5.1l22.6,2.23Z"/>
  <polygon class="bu" points="402.74 475.78 401.97 483.86 388.01 483.69 387.98 476.01 402.74 475.78"/>
  <path class="fe" d="M286.15,247.92c-4.52,3.93-10.11,6.31-11.75,3.49-1.21-2.07-.52-5.21-.3-7.89,4.24.76,8.16,2,12.05,4.41Z"/>
  <path class="q" d="M280.47,265.48c-1.29.35-5.64-.16-6.22-1.8-1.01-2.88-.24-6.02-.22-8.71,1.86-.28,5.1.09,5.86,1.67,1.18,2.43.68,5.2.58,8.85Z"/>
  <path class="fn" d="M495.08,408.89c-1.47,2.25-3.52,3.74-6.15,4.47,1.27-1.21,2.14-1.43,2.37.55-2.8,1.26-5.24,2.08-8.09.92.4-1.02.95-2.06,1.92-2.88l10.29-8.19c-.03,1.5,1.25,3.56-.34,5.14Z"/>
  <path class="eq" d="M287.36,268.63c-2.09-.38-3.33-1.3-4.15-1.85-1.43-.97-1.96-7.86.31-9.05.95-.5,3.29.3,3.71,1.78.81,2.87.3,5.42.13,9.13Z"/>
  <path class="dc" d="M204.96,264.13c-.8-1.63-1.83-3.13-3.09-4.51-.1-1.66-1.01-3.69.43-4.17,1.54-.51,3.92-1.03,4.75-.27.64.59.72,5.12-.07,7.88-.28.99-1.5.73-2.02,1.05Z"/>
  <path class="bs" d="M199.49,254.57l-5.47,3.08c-.94-2.32-.97-4.59-.04-6.96,2.05,1.06,3.21,1.44,5.5,3.88Z"/>
  <path class="ec" d="M282.81,255.13c-1.43-1.72.76-2.26,1.43-2.74,1.06-.75,2.81-1.25,3.19.51.26,1.22.18,2.91-.39,3.39-.87.73-3.07.22-4.23-1.16Z"/>
  <path class="al" d="M198.1,245.73l-.52,3.96c-1.22-.48-3.73-.81-3.19-2.75.45-.75,2.79-.95,3.72-1.21Z"/>
  <path class="t" d="M652.98,329.71l-.07-9.09c0-1.06.38-1.81.96-1.91l.14,9.08c.02,1.06-.37,1.81-1.02,1.92Z"/>
  <path class="u" d="M320.07,408.67l-10.11.03-.91-1.24,8.98.17c1.06.02,1.72.46,2.04,1.04Z"/>
  <path class="dh" d="M570.56,238.95l10.51,34.73,9.98,32.94c.46,1.5,1.64,3.05.14,4.18l-20-63.24c-1.3-4.1-1.81-7.96-4.32-10.9.38-.21.79-.11,1.07-.01,1.65.41,2.26,1.09,2.63,2.3Z"/>
  <path class="k" d="M365.05,164.75l25.35,7.47,37.66,8.71c1,.23,1.85-.35,1.66-1.14,1.22.13,2.04.99,2.19,2.18-.54-.32-.97.05-1.05.41-.11.51.02,1.36.28,2.17l24.75,79.11-56.08-13.75-13.66-3.34c-.92.36-2.07,0-2.32-1.2.43.34,1.23.57,1.9.04l-22.63-77.72c-4.55-.66-1.35-6.18,1.96-2.94Z"/>
  <path class="ac" d="M859.24,382.73l-.11,2.42c-8.16,3.04-3.05,3.52,1.59.14,2.59-4.66,5.06-6.24,7.4-4.74,1.01-.27,1.83-.08,2.48.57,11.52-.8,23.19.67,34.46,3.21.12-.8.78-1.31,1.99-1.52,2.11.5,3.5.51,4.77,3.26.71,1.54,4.4,2.13,5.86,1.66,3.33-1.07,4.04,1.41,5.3,1.86,6.02,4.34,12.1,8.78,18.22,13.32l8.44,8.49.15,3.07c2.2,3,.36,7.85-3.32,8.67l-18.22-6.91-4.39.51c-2.7,2.01-4.97,2.62-6.79,1.82l-4.88,3.8-2.21-.89c-.97.13-1.85.5-2.59,1.15-12.24,10.68-22.26,13.43-38.16,8.05-5.24-2.76-10.31-5.73-15.2-8.92-3.11-2.62-8.21-7.67-6.69-12.14-1.61.19-3.11-.61-4.5-2.42l-3.67-.72c-10.89,2.86-21.45,3.45-31.68,1.78l-.72-2.14,1.19-2.8c11.52-7.97,23.67-14.57,36.45-19.82l-.7-1.98c2.34-.51,5.96-2.2,8.84-1.05,2.2.88,3.96,3.12,6.71,2.27Z"/>
  <path class="ea" d="M949.79,414.48l2.37-.44c4.96,4.62,11.25,9.42,18.37,8.81l6.84.58c-2.46,2.85-5.42,3.63-7.53,5.38-1.27.07-3.81,1.37-7.63,3.9-10.51,9.09-22.18,17.12-35.03,24.09l-6.16,1.57c-.94.53-1.92,1.79-3.8,1.55-6.97.3-12.76,3.61-17.56,8.31-12.22,3.02-23.87,1.28-35.72.56,1.16,1.47,3.46.82,4.35,2.21-1.04,3.16-10.41,1.63-9.37-2.04,1.23-.22,2.83.27,4.2-.9-4.99-1.63-9.59-2.37-13.03-5.16-.7-1.01-.74-1.81-.12-2.41-1.22-1.08-1.72-2.58-1.5-4.53,5.02-5.22,7.56-11.04,7.61-17.44-2.47.9-2.7-.74-2.6-3.04-.76-.13-1.85-.35-1.97-.93-.48-2.48-.32-12.19,2.49-12.79.27-.22.92-2.14,1.48-1.91,5.37,2.16,9.88,11.14,28.37,11.33,8.24.09,15.28-3.65,22.03-8.65,1.18-.87,3.1-2.13,4.07-1.05l.1,2.54c-5.52,6.88-9.01,14.91-10.46,24.07,4.01-9.13,8.53-18.01,13.54-26.62,1-1.66,2.3-2.63,3.9-2.91,3.8-3.14,8.62-5.76,13.75-3.67l16.1,6.55c1.86-2.53,1.91-4.86,2.88-6.97Z"/>
  <path class="o" d="M801.17,402.6l-.03,1.64c-12.67.97-4.63-.93,2.45-.59,1.83.09,2.88.33,3.16,2.46,3.92.54,6.33,1.9,10.95,1.57,15.21-1.07,25.4-7.67,29.62,1.93l.43,3.3c-1.44,8.52-.36,17.39,3.22,26.61-.04-2.36.8-3.71,2.51-4.05-.12.93.71,2.1,1.32,1.51.38-.37,1.24-1.55,2.65-1.6,4.02,13.8-9.67,18.77-7.49,25.1l-.62.75c-9.81-12.01-19.82-24-30.01-35.96-5.18-4.79-11.04-8.59-17.58-11.39l-1.16.8c-2.95-2.53-5.81-5.2-8.59-8-1.93-1.43-4.8-1.69-5.26-5.01,5.31,1,9.76,1.14,14.4.93Z"/>
  <path class="cp" d="M996.16,368.24c-1.02,2.1-2.91,2.69-5.09,3.63-5.17,2.33-9.69.34-14.3-2.66-8.19-5.33-15.41-11.58-17.68-21.53-2.52-.24-3.8-2.14-1.81-4.08,1.51-5.47,5.34-3.91,13.63-8.15,11.12,6.4,22.61,19.71,25.25,32.79Z"/>
  <path class="g" d="M823.37,334.32c.3,1.13.48,2.38.17,3.53-1.02,3.8-16.77,13.54-20.92,15.41-3.78,1.71-11.69,5.04-14.93,2.41-1.33-1.38-5.31-2.21-5.73-4.92-1.54-2.18-.61-4.4,1.07-6.18l1.76-.1c6.54-8.8,15.01-15.27,24.83-20.07,1.11-.54,2.45-.13,3.62.38,3.82,4.07,8.79,1.28,10.13,9.54Z"/>
  <path class="cw" d="M955.94,405.67c8.58-7.41,19.48-11.95,30.28-13.98,2.59.44,4.36,1.55,6.58,3.27,3.69,2.87,5.04,8.27,1.33,12.03-5,5.06-11.82,9.06-19.15,9.55l-10.15-1.44c.35-2.06-.42-4.04-1.35-4.01l-3.1.09c-2.16-1.33-3.05-3.94-4.44-5.52Z"/>
  <path class="cb" d="M849.98,460.49c.24.7,1.13,1.59.12,2.41l-12.91-10.44c-4.35-3.52-10.1-5.09-13.05-9.67l-7.8-8.49.69-2.29c-1.33-3.03-3.41-5.79-6.24-8.29-3.27,1.52-9.55-6.9-9.03-9.82,12.75-.32,25.02,16.28,33.27,26.73l11.06,14.01c1.48,1.88,1.02,5.43,3.88,5.86Z"/>
  <path class="ag" d="M812.96,390.82c-4.2.95-6.08,2.46-7.81,5.34l-7.1-.87-2.03,3.84c-3.22-.21-5.61-.99-8.37-2.46-3.53-2.6-6.72-6.53-9.57-11.79,3.75-19.9,27.83-3.63,34.87,5.96Z"/>
  <path class="dt" d="M789.03,472.66l-.31-2.31c.77-3.37,19.38-3.01,18.44-2.95-2.85.21-8.28.16-10.36-.72.61-.82,1.7-1.06,3.05-1.08l21.21-.2c2.04-.02,6.6,1.94,5.93,4.03-4.75,5.94-12.33,7.49-19.24,9.15s-14.6-.08-18.72-5.93Z"/>
  <path class="bt" d="M957.28,343.6c.33,1.29,1.37,2.31,3.21,2.82,3.04,10.36,10.57,18.01,20.18,22.56,3.63,1.72,6.87,3.45,10.4,2.89-3.39,1.46-6.13,3.12-8.96,5.81-12.67-4.45-23.55-14.02-28.6-26.38-.7-1.72,0-4.02.14-5.3.17-1.62,2.15-2.17,3.62-2.39Z"/>
  <path class="dq" d="M935.93,529.31c1.72-1.42,3.46-3.25,5.2-5.47,2.47-1.41,4.27-2.69,5.41-3.82l8.79,4.45c-1.45,13.22-12.57,21.59-25.61,21.4,1.03-2.44,3.05-3.3,4.49-5.1-.71-4.5-.34-8.1,1.71-11.46Z"/>
  <path class="ap" d="M933.89,481.08l13.35,7.48c2.92,1.39,4.12,3.11,3.6,5.19-3.84,5.09-9.39,4.9-15.03,2.19-7.62-3.66-15.26-7.89-18.85-16.34,3.62.98,6.96.63,9.77-.86,3.62-1.92,5.28.91,7.16,2.34Z"/>
  <path class="e" d="M787.69,355.67l9.71-2.51c6.7-1.76,23.68-12.57,25.97-18.84,7.73,11.1-11.93,23.16-26.31,26.63-5.17,1.25-6.95-1.68-9.36-5.28Z"/>
  <path class="dr" d="M780.32,520.85c-6.17-7.25-7.84-14.12-6.63-23.47,2.78-.88,7.32-2.01,9.54-.14,5.01,4.22,5.21,11.28,4.54,17.14l-4.47,1.06c.91,3.44,1.98,5.5,3.8,8.28-3.11.26-4.6-1.54-6.78-2.87Z"/>
  <path class="ds" d="M843.69,381.51l5.09.08c.16,1.28.14,2.02-.07,2.91-17.29,3.48-27.82,15.07-41.96,21.61l-14.82-2.05c3.52-.71,6.78.67,9.24-1.45l6.42-2.28,25.18-14.66c3.66-2.13,7.23-3.35,10.92-4.15Z"/>
  <path class="bj" d="M829.56,341.9l-3.24-7.92,23.63-6.2c5.63-1.48,10.61-2.76,16.21-4.9-10.78,9.31-23.55,14.73-36.59,19.02Z"/>
  <path class="cs" d="M858.93,468.95c3.07,1.76,6.18,1.47,9.37,2.04,9.94,1.79,19.59,2.6,29.69-.11-.05,1.59-.9,5.63-3.03,5.87-15.12,1.69-30.67-.07-44.35-5.7.26-1.31,1.5-2.37,3.73-3.18,1.47.3,3.45.42,4.59,1.08Z"/>
  <path class="ew" d="M970.53,422.85c-6.59,3.24-14.9-2.25-20.74-8.37-6.16-6.46-12.15-13.63-20.41-18.23-3.01-1.68-6.57-2.96-6.4-6.64,6.9,2.5,13.37,6.5,19.28,11.81l12.14,10.93c4.96,4.47,9.56,9.37,16.13,10.51Z"/>
  <path class="dw" d="M954.19,342.03c-3.58,1.82-4.56,3.56-5.17,7.56-11.45-7.81-22.44-14.55-31.36-25.53,12.04,6.47,23.5,13.05,36.53,17.97Z"/>
  <path class="ff" d="M788.03,366.73c1.9,3.62-9.57,1.8-15.65,10.24-3.94-4.5-5.24-9.93-3.69-14.59,1.5-1.17,1.02,4.53.82,4.74-.63.68,1.64-17.82,9.93-7.77,4.54.74,8.04,2.3,8.59,7.38Z"/>
  <path class="ef" d="M1006.05,386.71c-.39,3.64-1.85,7.59-5.83,9.41-2.65-5.36-6.74-7.69-11.56-9.59-1.53-1.73-1.86-4.64-.41-6.55,1.05-1.38,12.99-5.98,14.56-3.81,1.63,3.22,2.71,6.74,3.23,10.55Z"/>
  <path class="dg" d="M958.64,497.95l-.58,2c2.56,6.07,3.49,12.84.78,19.01-3.36,1.89-9.16-1.97-10.9-5.06-2.6-4.62.21-8.57,2.92-12.26,1.12-1.52,1.43-3.68,3.18-4.39,1.01-.41,3.21-1.26,4.6.69Z"/>
  <path class="ay" d="M952.03,469.31c10.25,2.8,20.74,5.2,31.47,7.19l.36,1.45c-.62,1.3-1.49,3.21-3,4.1l-27.69-7.54-14.07-3.96c-1.65-.47-3.26-2.01-3.04-3.67,5.78-.41,10.86,1.55,15.97,2.44Z"/>
  <path class="cl" d="M812.96,390.82c-2.43-3.36-5.46-4.58-8.65-6.47l-10.84-6.41c-4.27-2.53-13.08-.42-13.53,5.9-.32,4.49,5.28,8.9,8.08,11.54,1.03.52.83,1.21-.36,1.28-5.37-2.86-10.99-7.72-12.12-14.13s12.64-11.79,21.19-6.56c6.42,3.92,13.3,8.1,16.22,14.85Z"/>
  <path class="y" d="M937.5,311.49l-.02.9c10.7,3.61,20.15,10.02,28.6,17.4,1.49,2.17-2.88,5.45-8.1,7.2-4.07-2.82-5.29-7.64-8.14-11.22-5.33-6.69-12.54-11.77-20.78-14.65,2.6-1.02,5.46-.5,8.45.37Z"/>
  <path class="fg" d="M969.84,428.81l-13.56,11.21-13.22,10.44c-4.72,2.82-9.11,4.98-13.16,6.46l-.77,1.17c-2.55.36-5.23.98-8.1.27,10.07-5.67,20.08-11.47,29.53-19.05,4.69-3.77,10.19-3.63,10.17-7.69l8.43-3.87c.48-.22.94.63.69,1.05Z"/>
  <path class="ca" d="M846.88,309.61c.34-1.55,3.19-1.3,3.1.52-11.99,3.42-16.63,12.23-25.59,17.94-2.59-5.45-9.39-3.77-7.57-6.63l1.19-1.86c8.18-4.39,16.81-7.8,25.89-10.23l2.97.27Z"/>
  <path class="n" d="M771.48,491.87c1.85-7.82,5.68-13.76,11.51-17.82,1.26.61,3.26,3.12,3.98,4.66,1.77,3.82-.08,9.87-3.75,12.11-3.48,2.12-8.18,2.29-11.73,1.05Z"/>
  <path class="cr" d="M843.06,467.74c-2.14,1.25-3.48.32-4.02-2.79-2.02,1.95-4.06,2.59-6.11,1.91-1.19-.91-3-1.16-4.32-2.85-3.1-3.99-11.01-5.7-6.68-6.88l2.1-.58c1.94-.98,2.95-2.19,3.02-3.63l-6.09-4.57c-.15-.37-.13-1.06.17-1.54l10.84,6.88c7.34,4.66,15.74,11.1,11.09,14.05Z"/>
  <path class="bw" d="M1003.18,497.47c-1.36,1.84-4.86,2.96-6.72,1.74-7.99-5.26-11.56-18.32-7.91-19.44.92-.28,2.16.42,3.01,1.37l11.62,16.33Z"/>
  <path class="be" d="M763.85,450.71l1.14-2.33,25.06.7c5.42-.39,10.98,1.59,17.1,2.82-3.66,1.54-7.44-.19-11.07.61l-6.06,1.32-22.04-.13c-2.31-.01-3.43-1.62-4.14-3Z"/>
  <path class="az" d="M1008.33,457.19l-17.42.68c-2.64.1-4.94-1.54-5.09-4.44l25.97-2.25c.34,1.71-.95,5.91-3.45,6Z"/>
  <path class="fc" d="M996.16,368.24c-5.48-11.24-12.93-21.21-22.51-29.19-1.34-1.11-2.77-1.63-2.75-3.59.39-.2.93-2.12,1.87-1.47,11.52,7.82,27.25,26.31,23.38,34.26Z"/>
  <path class="ey" d="M907.05,382.82c0,1.21.15,2.25-.49,3.91-11.7-3.24-23.37-3.95-35.59-4.04-1.6-.01-2.63-.92-2.85-2.12-.31-1.29,1.32-1.83,4.91-1.63,11.44-.11,22.93,1.25,34.02,3.89Z"/>
  <path class="s" d="M1035.41,469.47c-7.24,8.5-21.42-9.16-19.88-12.85.36-.85,2.12-1.46,3.17-.61l16.71,13.46Z"/>
  <path class="df" d="M813.23,324.78c-10.57,4.37-19.49,11.45-26.97,20.26-.68.8-1.45,1.51-2.22,1.16-.42-.19-.78-.69-1.02-1.63,6.56-10.58,17.25-18.31,28.78-23.11,1.14.82,1.16,2.63,1.43,3.32Z"/>
  <path class="aw" d="M790.52,436.75l-14.57-3.76c-5.17.31-9.07,1.18-14.38-1.24-1.04-.48-3-.45-3.73-1.52-.66-.96-1.19-3.07-.35-4.18,4.51-.37,9.45,1.75,14.02,3.11l18.45,5.48c.61.18,1.19.64,1.55,1,.31.32.45,1.47-.99,1.1Z"/>
  <path class="es" d="M1013.03,429.24c-2.27,1.25-3.1-2.49-2.87-3.88.32-1.94,1.83-2.58,3.34-4.1,4.6-4.63,7.99-10.09,14.7-12.52-.78,4.41-3.47,7.59-6.49,10.79-2.73,2.88-4.69,7.51-8.68,9.72Z"/>
  <path class="bw" d="M792.28,422.4c-9.21.17-13.17-5.94-17.99-6.34-4.5-.37-8.81-3.9-12.73-5.66-.67-.78.26-2.53.89-2.87.83-.45,2.6-1.01,3.92-.24l25.9,15.11Z"/>
  <path class="ae" d="M1006.05,386.71c-2.7-1.71-1.2-7.02-5.7-9.97-3.51,2.54-7.43,2.71-11.19,4.23-1.12,1.16-.44,4.48-.5,5.55-2.48-.98-2.93-3.81-2.22-5.84,2.02-5.78,9.46-3.99,15.19-9.76,4.56,4.94,5,10.37,4.41,15.78Z"/>
  <path class="bh" d="M788.03,366.73l-1.98-3.77c-1.1-2.09-8.14.83-10.05-4.9-3.62.92-6.04,5.26-6.21,9.78-1.49-1.71-.74-3.73-1.1-5.47,1.57-4.72,2.89-9.6,8.44-12.23,1.9,8.13,12.04,9.49,10.9,16.58Z"/>
  <path class="cy" d="M757.35,450.77c4.63.25-7.45,17.94-17.15,13.02,5.51-5.41,14.04-13.19,17.15-13.02Z"/>
  <path class="cv" d="M986.22,391.69c-.18.79.39,1.04,1.76,1.67-3.85,0-7.06.81-10.81,2.46l-11.17,4.94-10.07,4.9c6.39-8.93,19.89-15.73,30.28-13.98Z"/>
  <path class="dz" d="M937.5,311.49c11.11,3.25,22.01,8.71,28.58,18.3-10.75-5.23-19.41-13.74-31.22-17.38.86-1.17,1.78-.75,2.64-.91Z"/>
  <path class="ct" d="M923.82,465.45c-.66,1.95-2.74,3.22-6.25,3.8-3.1,1.99-5.88,2.69-8.33,2.09l-4.16,3.49c-.98.82-2.29.37-2.68-.25-.72-1.11-.45-2.68.75-3.88,6.71-6.7,16.15-5.69,23.94-8.8-.47,2.2-2.33,3.23-3.27,3.54Z"/>
  <path class="av" d="M873.03,378.92l-4.91,1.63c-1.37.46-2.96,1.68-3.91,3.45-2.84,5.28-9.84,7.49-14.57,2.98,3.93-1.47,6.84-2.41,9.6-4.25,1.62-1.08,3.43-3.44,4.94-5.1l8.85,1.29Z"/>
  <path class="ak" d="M744.52,390.65c1.87-3.99,14.84,9.84,14.13,13.23-.17.81-1.45,2.83-2.46,1.73l-11.12-12c-.69-.75-.84-2.36-.55-2.96Z"/>
  <path class="f" d="M1006.24,430.81c.43.58,1.22,2.49.59,2.7l-21.28,6.74c-4.34,1.37-8.54,2.2-12.63,1.06l4.33-1.74,1.12.38,26.14-9.92,1.74.79Z"/>
  <path class="v" d="M739.67,437.97c-2.69,1.38-4.91,2.05-6.61-.88l18.67-9.78c.87,3.09-.99,4.99-3.12,6.08l-8.95,4.59Z"/>
  <path class="co" d="M950.83,493.75l-16.95-12.67c7.66,1.68,14.88,5.13,21.18,10.13-1.43,1.55-3.25,1.97-4.23,2.54Z"/>
  <path class="dn" d="M843.99,308.33c2.31-.4,3.28.03,2.89,1.28-9.13,1.98-17.7,6.4-26.66,10.34-.95.42-1.73.44-2.21-.37,6.97-6.9,16.66-8.96,25.98-11.24Z"/>
  <path class="ed" d="M817.03,432l6.56,8.16c.68.85,1.35,2.05.54,2.62-4.23-1.7-7.51-4.94-10.56-8.71l-5.98-7.4c.26-2.5.97-3.03,3.34-2.1,2.5,1.87,5.5,4.26,6.09,7.43Z"/>
  <path class="by" d="M801.77,413.89l9.03,9.82.15.86c-.75,1.17-1.85,1.85-3.34,2.1l-6.22-8.41-9.35-11.57,9.74,7.2Z"/>
  <path class="ch" d="M780.32,520.85c-7.91-4.82-11.31-15.32-6.63-23.47,3.36,1.64-1.1,9.24,5.03,18.58,1.06,1.61,1.68,3.34,1.6,4.9Z"/>
  <path class="di" d="M923.82,465.45c.26,1.27.54,2.27,1.03,3.28-.46,2.88-7.43,5.37-10.2,4.93-.98,1.09-2.16,1.98-2.97,4.07-.19.48-2.05-.26-2.22-.88-.39-1.43.61-3.5-.22-5.5,4.01-3.37,9.96-4.36,14.58-5.89Z"/>
  <path class="h" d="M983.86,477.94l-31.2-7.01c-.95.41-2.32-.7-.63-1.63l30.91,5.37c.62.11,2.08.92,2.14,1.44.05.49-.79.91-1.22,1.82Z"/>
  <path class="em" d="M790.05,449.08l-9.11.66c-5.98.43-11.68-.66-17.09.97-.45-.88-1.92-2.62-.92-4.44l27.12,2.81Z"/>
  <path class="z" d="M958.64,497.95c3.77,5.31,4.43,15.38.2,21.01,1.53-7.21-.15-14.46-3.87-21.02h3.67Z"/>
  <path class="ck" d="M998.31,520.85l-.2-14.07c.82-1.92,2.48-3.16,4.85-3,.44,6.17-.94,11.58-4.66,17.07Z"/>
  <path class="ee" d="M924.85,468.72c1.58.23,3.11,2.53,2.83,4.52-2.06.88-5.55.93-7.89,3.29l-5.14-2.88c2.6-2.9,6.44-4,10.2-4.93Z"/>
  <path class="l" d="M980.9,457.55c-6.73-.23-12.78.48-19.59-.79l19.33-2.99c.52.08,1.01,2.93.26,3.77Z"/>
  <path class="br" d="M737.47,467.56c3.88,1.14,2.84,9.32.18,16.72-2.29-5.36-2.39-11.21-.18-16.72Z"/>
  <path class="da" d="M782.99,474.05c-.06,1.17-1.44,1.97-2.46,3.13-3.91,4.44-5.86,9.66-9.05,14.69.13-7.97,7.41-19.81,11.51-17.82Z"/>
  <path class="du" d="M1006.24,430.81l-14.57,4.68-10.78,4.17-2.42,1.06c-.46.2-1.45-.03-1.23-1.16l24.74-9.91c1.02-.41,2.4-1.37,2.99-.57l1.27,1.73Z"/>
  <path class="ei" d="M796.79,466.68c3.55.09,7.18-.5,11.25.59-6.98,1.03-14.21.1-19.01,5.39l-2.37-3.37c3.33-1.41,6.77-2.7,10.13-2.61Z"/>
  <path class="ba" d="M843.06,467.74c-3.24,2.05-7.24,1.34-10.14-.88,2-1.07,3.76-3.46,6.22-4.02,1.74-.4,3.32,3.08,1.92,4.53.98.51,1.4.28,2,.37Z"/>
  <path class="bq" d="M824.03,456.55c.53-1.43,1.75-2.57,3.02-3.63l11.55,7.93c-5.18,2.01-7.88-6.03-14.57-4.3Z"/>
  <path class="cj" d="M943.06,450.46c-4.32,3.42-8.43,6.85-13.94,7.63-2.13-1.12,0-2.36.58-1.35l11.19-6.21c.43-.24,1.01-.61,1.43-.65.28-.02.61.04.73.57Z"/>
  <path class="bc" d="M946.54,520.02c1.14.88-.17,2.5-1.17,1.85-4.26,2.19-6.83,5.37-8.77,9.86-.81-.44-.87-1.32-.66-2.41,2.56-4.2,5.06-7.54,10.61-9.29Z"/>
  <path class="bp" d="M849.98,310.13l-3.1-.52c-.52-1-1.9-1.16-2.89-1.28,4.34-1.06,8.81-.89,13.06-.23l-7.08,2.02Z"/>
  <circle class="cf" cx="916.88" cy="379.72" r="2.21"/>
  <circle class="an" cx="856.55" cy="373.74" r="2.05"/>
  <path class="en" d="M361.89,161.39l3.16,3.36c-.49-.29-1.91-.2-2.12.52-.19.63,0,1.85.17,2.43-.93-.04-1.27.83-1.06,1.8l2.32,10.67c.38,1.76-1.36,6.03-3.51,6.48-2.38-.02-6.13-3.74-6.52-5.93-1.33-7.53-2.32-14.15-2.33-21.1l8.97,3.98c.72-.43.96-1.55.92-2.2Z"/>
  <path class="ai" d="M606.39,494.49c-28.17.77-54.82.78-82.37.32l-33.13-.56,15.05-1.29,29.11-.47,85.8.03,28.22.8-42.67,1.17Z"/>
  <path class="ao" d="M268.47,469.13l-13.27-1.04c.77-7.75-1.55-15.21,1.08-17.54.92-.82,7.34-.27,8.7.66,2.61,1.78-1.37,10.57,3.5,17.93Z"/>
  <polygon class="dj" points="346.67 483.73 332.78 483.95 332.84 448.78 346.3 449.76 346.67 483.73"/>
  <polygon class="ar" points="321.11 471.56 308.09 470.78 308.09 446.65 320.62 447.68 321.11 471.56"/>
  <path class="bn" d="M369.82,473.74l-12.14-.31.16-22.7c4.27-.23,8-.02,11.72.91l.26,22.09Z"/>
  <polygon class="bd" points="228.4 447.37 214.93 447.72 215.98 424.03 228.28 423.86 228.4 447.37"/>
  <path class="fk" d="M231.37,321.52c-3.96.7-8.23,1.96-12.4,1.6l1.19-22.27c3.64-.84,7.04-1.1,10.85-1.12-.01,7.54-.46,14.35.36,21.79Z"/>
  <path class="bk" d="M434.59,416.88c-2.24-4.52-2.77-10.28-.25-15.61,1.15,5.26.77,10.04.25,15.61Z"/>
  <rect class="bv" x="257.37" y="282.91" width="6.57" height="15.09" transform="translate(-2.28 2.06) rotate(-.45)"/>
  <path class="u" d="M328.9,431.7l-7.78-10.17-10.09-11.72c3.61-.99,5.21,1.79,7.67,4.14s5.64,3.55,7.11,6.93c1.87,4.3,4.71,7.66,7.55,11.41-2.12.73-3.36-.17-4.46-.59Z"/>
  <path class="ev" d="M216.1,212.9c.06-4.3,3.19.3.4,14.89-1.09-4.88-.47-9.72-.4-14.89Z"/>
  <path class="x" d="M265.39,211.58c-.2-.15,1.28,12.77-1.91,19.31l-.59-17.23c-.03-.98.24-1.64.57-1.97.31-.31,1.48-.44,1.92-.11Z"/>
  <path class="fi" d="M285.42,266.87c-2.38-2.64-1.75-5.85-.92-8.34,2.38,2.59,1.77,5.87.92,8.34Z"/>
  <path class="cu" d="M854.02,421.75l-.53,13.72-1.03,13.52c-3.73-6.89-4.2-13.7-6.28-20.62-1.91-6.36-2.66-13.35,1.14-18.77,2.57,5.86,6.86,7.8,6.69,12.14Z"/>
  <path class="do" d="M917.06,418.56l-3.67,6.6-9.41,17.53c-1.95,3.63-1.99,7.95-6.04,10.29-1.21-4.96.54-9.04,1.88-13.43,2.14-6.97,4.67-13.78,10.15-18.09,2.2-1.34,4.31-4.23,7.09-2.91Z"/>
  <path class="cd" d="M919.81,391.69c-1.23,3.88-4.91,4.43-7.89,3.52-3.69-1.14-6.56-4.14-4.02-8.57,3.08,4.77,6.23,7.14,11.91,5.05Z"/>
  <path class="o" d="M817.03,432l-6.09-7.43c-.14-.17-.15-.48-.15-.86l4.52,3.72c1.54,1.27,2.5,2.61,1.72,4.57Z"/>
</svg>