<?xml version="1.0" encoding="UTF-8"?>
<svg id="a" data-name="Layer 1" xmlns="http://www.w3.org/2000/svg" viewBox="0 0 1086.07 388.25">
  <defs>
    <style>
      .b {
        fill: #a01318;
      }

      .c {
        fill: #9f1317;
      }

      .d {
        fill: #f5ad0d;
      }

      .e {
        fill: #010101;
      }

      .f {
        fill: #f4ac0c;
      }

      .g {
        fill: #020202;
      }

      .h {
        fill: #f4ab0b;
      }

      .i {
        fill: #f9d68a;
      }

      .j {
        fill: #f4ac0b;
      }

      .k {
        fill: #f5ac0b;
      }

      .l {
        fill: #696969;
      }

      .m {
        fill: #020101;
      }

      .n {
        fill: #f4ac0a;
      }
    </style>
  </defs>
  <g>
    <path class="b" d="M632.8,156.09c-12.63,12.81-26.26,23.46-42.14,31.57-6.72,12.29-15.46,22.91-26.64,30.66-7.44,2.53-6.79-1.74-11.75-.92l-46.56,6.9c-3.43.56.72-3.78-1.29-1.72-4.54-.92-1.95-2.37-2.43-6.07-.61-4.65.92-11.24,6.18-12.12,3.75,3.07,8.17,7.7,14.14,7.64,22.43-.22,39.73-23.59,46.17-44.31-7.79,9.03-15.11,16.36-25.63,20.45-8.01,3.11-18.01,3.71-24.92-1.79s-8.52-13.89-7.96-22.1c-1.48.8-3.35,2.34-4.08,3.75-1.77,3.42-4.43,4.77-7.03,7.21-7.55,7.06-16.1,13.64-26.8,14.94-6.2.76-13.23.08-17.67-4.29-4.12-4.05-6.44-10.7-6.05-16.21.67-9.26,2.66-17.5,6.36-25.83l19.24-43.33-16.35-1.83-10.78,20.42-11.45,19.54-8.7,13.15c-2.1,3.17-4.53,5.34-6.81,8.28-8.16,10.48-17.07,19.79-28.77,26.25s-27.62,6.67-33.34-5c-2.19-4.46-2.63-9.73-2.99-15.23-6.74,8.38-14.28,16-23.73,21.02-5.02,2.67-9.62,3.11-15.02,3.38-9.51.47-17.68-3.66-21.77-12.67-6.8-14.97-2-36.7,5.06-52.24,6.76-14.89,15.26-27.62,27.48-38.62,17.18-15.46,45.25-24.3,58.41-2.9,1.64-4.34,2.67-9.46,7.17-10.35,7.11-1.4,19.71-1.24,25.12,3,2.38,1.87,1.56,5.07.46,7.49l-20.57,45.39c-4.98,10.99-9.16,21.82-11.3,33.64-.36,1.99,1.23,3.94,2.55,4.92,3.98,2.97,15.63-7.64,20.98-14.36,10.78-13.53,20.35-27.59,27.48-43.39l7.44-16.5c-1.31-4.26-4.22-9.19-3.2-14.22,1.14-5.66,1.89-11.24,5.15-16.07,5.36-7.95,15.62-10.04,24.66-6.15,2.24.96,4.66,5.15,3.79,7.65l-4.85,13.91c10.68,3.25,23.63-1.94,34.49,6.68,4.51,3.59,4.23,9.98,1.79,14.93-7.48,15.12-30.9,59.24-25.26,66.56,6.52,8.47,34.66-26.9,41.79-43.23l13.67-31.3c2.68-6.12,5.42-11.58,6.19-18.46,9.43-2.02,18.65-2.14,27.31,1.03,3.84,1.4,4.14,6.27,2.61,9.62l-19.17,41.95c-5.46,11.94-17.35,37.09-9.85,41.24,11.25,6.22,33.7-27.47,40.22-41.98l9.56-21.27,7.14-16.98,4.49-13.52c3.88-.83,8.07-2.61,11.89-1.92l12.57,2.25c5,.89,6.79,5.65,4.89,9.98l-11.87,27.14-9.92,22.94-12.83,32.88c12.51-6.16,37.1-31.23,41.41-40.86,16.83-37.6,32.96-74.59,54.67-109.59,2-3.23,1.64-4.59,6.36-5.16,7.68-.93,17.45-1.59,23.92,4.24,3.72,3.35,1.77,9.51-.7,13.47-22.13,35.6-43.65,74.81-57.79,114.14-3.15,8.76-7.14,21.19-2.54,23.92,6.72,3.99,25.6-17.85,27.99-24.13,7.93-20.84,16.81-41.13,33.94-56.28,8.35-7.38,17.91-13.44,28.8-15.24,12.38-2.04,23.76.65,28.7,11.41l4.84-9.04c11.6-4,30.6-.3,29.35,5.72s-4.09,10.71-6.62,16.26c-7.3,16.04-29.13,60.21-25.6,69.45,4.21,11.01,28.78-17.52,35.88-31.06l19.59-44.57,4.92-15.08c1.07-3.27,34-4.82,28.8,8.77l-4.75,12.41,8.38-8.72,7.03-6.04c4.99-4.29,11.29-7.28,17.67-9.16,9.06-2.67,19.76.37,23.49,9.2,3.61,8.56,1.51,17.9-2.08,26l-16.58,37.46c-3.4,7.69-7.72,19.87-4.66,22.6,4.35,3.88,13.8-5.28,19.62-12.63l8.39-10.58c5.8-20.04,15.13-38.33,29.45-53.47,16.09-17.01,44.38-29.73,60.5-9.39l9.57-20.65,13.36-30.74,2.8-10.29c1.31-4.83,23.34-5.96,29.88.61,2.82,2.83,1.13,7.88-.31,11.16l-25.43,57.62-11.76,27.26-10.5,26.5c-3.78,9.55-7.42,25.41-1.82,29.38,3.48,2.47,9.23-.1,12.74-2.62,11.72-8.4,20.4-19.86,27.47-32.3.79-1.39,2.39-2.19,3.39-2.32,3.24-.4,7.86,5.09,5.73,9.27-10.56,20.67-29.19,42.19-51.46,48.56-9.68,2.77-20.29,1.16-26.88-6.66-4.71-5.59-5.21-12.87-5.02-20.47-7.25,8.31-14.06,16.57-23.63,21.42-10.63,5.39-23.28,5.69-31.82-2.26-5.38-5.01-6.54-11.37-8.07-18.62l-17.74,16.52c-8.8,6.28-19.7,10.09-30.28,5.78-8.3-3.39-11.16-12.94-10.46-21.55.77-9.45,3.94-17.82,7.67-26.37l10.98-25.15c3.15-7.22,9.42-19.15,5.5-21.99-4.21-3.05-16.4,8.45-22.31,16.27l-10.4,13.75c-11.12,18.11-19.93,37.3-26.28,57.64-.68,2.16.08,4.39-1.56,5.93-3.48,3.26-20.96,5.16-28-1.39-3.64-3.38-.21-8.36.5-13.59-7.11,6.13-13.46,13.03-22.83,16.06-6.71,2.17-14.85,3.55-21.15-.23-7.27-4.36-9.32-13.6-9.13-22.05-7.07,8.13-14.11,16.27-23.89,21.08-7.82,3.85-17.53,5-25.49,1.59-9.01-3.86-12.93-12.61-14.13-22.36-12.94,13.09-24.76,25.41-42.5,23.87-8.13-.71-14.1-7.18-15.69-15.15-2.64-5.85-.56-11.32-.36-19.02ZM361.13,136.36c5.67-10.2,10.16-20.98,13.57-32.28,1.06-3.53.32-8.09-.06-11.73-.3-2.88-4.84-5.56-7.5-5.05-7.06,1.35-11.83,5.55-16.58,10.74-14.45,15.81-24.09,35.74-27.67,57.01-.67,3.97-.06,9.12,2.58,11.64,9.42,9.01,28.33-17.14,35.65-30.33ZM736.65,166.41c18.06-13.49,32.07-40.83,37.98-62.36,1.05-3.81.75-9.56-.4-13.12-2.6-8.01-16.9-1.77-26.33,10.34-11.3,14.52-19.88,30.85-23.79,49-1.1,5.12-1.28,11.37,1.11,15.69,2.04,3.69,8.17,2.88,11.43.45ZM977.31,164.81c8.29-6.71,18.86-20.92,23.02-30.22l9.58-21.44c2.99-6.68,4.17-15.09,2.31-22.27-1.55-6.02-13.34-4.06-22.12,5.58-13.25,14.55-27.15,40.51-28.17,59.79-.17,3.26-.25,8.49,2.25,10.62,4.32,3.69,9.69.71,13.12-2.06Z"/>
    <path class="c" d="M215.14,94.5c-14.04,25.46-25.15,51.78-34.66,79.24-2.46,7.1-3.76,13.71-5.41,20.72-1.21,3.76-7.94,3.31-10.78,3.95-9.09,2.04-22.44-.46-24.74-6.74-1.63-4.45-.55-10.37.66-15.2,4.99-19.79,11.27-38.31,18.6-57.35l20.57-53.44c3.74-9.73,9.17-24.11,6.95-32.04-7.58,1.63-12.28,7.08-16.76,12.25l-6.55,7.55c-10.57,15.05-19.73,30.3-27.88,47.1-15.71,32.37-28.89,65.34-40.2,99.55-2.88,8.71-4.64,16.65-5.42,25.94-10.29,4.24-21.99,4.37-32.7,1.46-6-1.63-9.22-7.03-7.77-13.32,3.85-16.71,10.41-31.87,17-47.86l36.75-89.17c6.71-16.28,13.03-31.81,17.23-48.8.74-2.99,1.06-5.92.86-9.29-4.97-1.74-10-.9-15.33.93-26.45,9.08-48.61,28.06-62.26,52.45-7.75,13.85-13.54,34.53-5.47,46.97,2.67,4.12,8.41,5.23,13.5,4.68,1.85,2.82.14,5.88-2.59,8.05-10.97,8.72-25.94,8.07-37.32-.57-6.98-5.29-10.06-13.81-11.07-22.83-3.05-27.29,14.56-55.77,34.93-74.28C61.77,10.41,98.71-2.81,134.52.75c6.5.64,13.17,2.63,17.48,7.35,8.18,8.98,1.91,25.37-.94,38.59,13.39-17.95,30.86-41.71,53.39-39.06,11.47,1.35,18.85,10.18,17.51,21.81-2.14,18.63-9.76,35.02-16,53.14l15.53-25.75c8.31-13.78,17.98-26.28,29.17-37.84,12.48-12.9,26.67-22.26,44.26-17.91,9.89,2.44,14.49,10.72,14.29,20.13-.16,7.75-.93,14.48-3.54,21.73l-9.01,25.03-22.74,56.15c-5.73,14.14-10.16,28.14-12.84,43.1-1.91,10.68-1.78,21.1,1.85,30.98,3.18,8.66,11.01,13.26,19.98,13.28,5.57.02,9.91-1.46,14.97-3.08,1.74-.56,3.4,3.04,3.27,4.38-.17,1.8-1.53,3.76-3.4,5.39-7.86,6.87-17.88,9.99-28.43,11.59-11.19,1.69-22.7-.49-32.7-6.31-10.95-6.38-16.62-18.39-18.17-30.69-3.04-24.13,7.56-53.27,16.86-76.22l7.79-19.24,22.46-52.34c2.19-5.11,3.51-10.19,2.31-15.92-5.57,1.84-9.75,5.35-13.71,9.43-16.79,17.26-27.39,34.97-39.01,56.05Z"/>
  </g>
  <g>
    <path class="j" d="M577.49,379.98l.64-4.84c.3-2.29,8.48-.67,13.55-5.47,2.85-2.7,2.36-6.83,2.69-10.44l1.4-15.14,1.2-18.92,1.42-19.98,1.13-18.87,1.3-22.44c.35-6.05,2.9-12.6-1.28-18.19l-12.85-4.49,1.69-10.24,80.38.89c14.27.16,28.45,7.24,35.63,19.62,8.89,15.31,6.63,35.27-3.02,50.23-9.05,14.03-24.69,22.81-42.48,23.09l-27.24.42c1.18,5.38-.51,10.06-.88,15l-1.42,18.86c-.25,3.39-.54,7.56,1.63,10.05,5.16,5.92,15.9,1.46,17.27,8.28.49,2.46-.26,7.91-3.97,7.92l-65.05.08c-2.24,0-1.92-3.97-1.73-5.42ZM642.58,311.09l11.21-1.45c12.01-4.07,16.49-15.47,18.37-26.97,3.27-19.93-5.18-37.04-19.42-37.42l-13.82-.37-2.42,18.68-1.06,16.64-1.18,18.82-1.1,10.85,9.43,1.23Z"/>
    <path class="k" d="M995.42,373.95l.06,11.54-27.71-.05c-3.46,0-10.76.18-13.12-2.74l-25.74-45.82c-.41-.73-3.56-.65-4.28-.27-1.23.65-1.2,12.09-2.03,19.95-.51,4.85-2.74,10.29.75,14.75,1.88,2.41,6.09,2.63,9.21,2.93.7,3.85.73,6.88-.44,11.12l-55.54-.34c-2.94-1.29-1.47-10.18,2.25-10.61s5.96-1.67,7.7-3.35c2.75-2.64,2.34-5.89,2.64-9.38l1.3-15.18,1.32-22.59,1.31-22.53,1.19-16.34,1.26-22.49c.29-5.16,2.94-11.17-.82-15.98-2.23-2.85-6.89-3.43-10.42-4.3-.72-3.36-.68-6.34-.01-9.87l45.45-6.91c1.71,7.1.24,13.69-.41,20.7l-1.16,12.69-.56,23.59c-.1,4.25-1.61,8.23-1.01,12.64.66,4.85-.72,9.1-1.18,13.8s.94,9.21-1.92,14.23c3.42,2.14,5.71.51,7.87-1.89l9.56-10.68c5.03-5.62,11.41-10.8,14.73-17.85-.32-2.77-5.52-3.44-7.09-4.25-1.4-2.5-.85-6.67-.32-9.47,11.16-3.12,22.03-.94,33.74-.33,3.74.2,9.65-2.96,12.82,1.31.94,1.78,0,7.12-2.16,8.42-5.51,3.06-12.64,3.25-17.3,7.84l-21.49,21.17,27.1,45.01c3.32,5.51,6.47,10.12,14.46,11.51Z"/>
    <path class="g" d="M146.71,341.78l-4.51,44.87-110.82-.12c-2.19,0-1.27-5.22-.93-6.62l.86-3.62c.42-1.75,8.43-.79,12.02-4.23,2.63-2.52,2.84-5.3,2.83-9.24l-.2-103.76c-.01-7.72-12.61-5.51-14.21-8.33s-.88-6.93.05-10.59l66.83-.23.03,11.13c-8.54,1.26-16.24,2.75-16.24,9.12l.06,111.17,28.94.32c2.54.03,6.73-.75,8.32-2.81,6.38-8.26,9.89-17.62,14.5-27.03l12.49-.03Z"/>
    <path class="e" d="M262.72,360.73c-9.61,19.08-29.52,27.69-49.79,27.52-13.51-.11-26.9-2.24-37.11-10.48-13.7-11.05-19.71-25.35-19.7-42.63.01-16.37,3.56-32.55,16.2-44.75,17.03-16.43,43.84-19.27,66.14-10.84,17.59,6.65,28.7,22.4,30.52,41.01l.04,19.69c.01,6.71-3,13.97-6.28,20.48ZM233.38,317.69c-1-11.45-4.21-22.34-14.24-28.85l-12.46.37c-1.98.06-5.04,2.97-6.33,4.53-6.57,7.96-7.34,17.72-7.84,27.7-.28,5.57-1.75,10.88.6,16.3-1.97,17.63,5.87,38.56,21.58,37.76,19.82-1,20.57-36.16,18.68-57.81Z"/>
    <path class="e" d="M390.04,346.31c7.67-17.53,38.6-20.93,58.13-25.26,1.08-7.12.92-14.27-.53-20.86-1.85-8.44-7.91-12.77-16.71-11.35-2.09.34-5.04-.6-6.81,1.15-4.28,4.25,1.56,17.37-6.21,22.06-5.41,3.27-15.12,2.77-20-1-4.25-3.28-4.84-9.94-3.94-14.43,1.02-5.04,4.12-8.93,9.33-11.91,17.24-9.84,37.27-12.4,56.58-7.05,12.01,3.33,21.15,13.49,21.27,26.29l.6,63.44c1.14,3.97,8.67,5.23,12.32,3.82,1.86,2.88,1.33,5.71.68,8.79-7.82,4.14-15.74,7.94-24.6,8.03-10.09.1-17.42-5.25-21.3-14.68-13.29,15.56-36.34,20.09-52.23,7.76-10.33-8.01-11.75-23.02-6.6-34.8ZM447.28,363.59c2.2-11.01,1.4-20.47,1.33-30.99-15.16.6-27.21,6.74-28.56,21.08-.52,5.52,2.53,10.67,7.02,14.69,7,2.19,15.23,1.16,20.21-4.78Z"/>
    <path class="m" d="M549.03,306.42l-.68,1.53.09,58.63c.02,1.26.82,3.99,2.19,4.63l10.23,4.8c2.22,1.04,1.29,7.51-.82,9.34l-57.02-.11c-2.61-1.61-2.84-9.43.23-10.18,4.97-1.22,11.58-2.57,11.65-8.64l.91-80.63.33-34.45c.06-5.85-7.17-8.09-12.48-8.28-1.66-3.48-1.38-6.78-.61-10.8l45.83-6.73.18,80.9Z"/>
    <path class="f" d="M1056.97,386.1c-16.16,4.11-31.92,1.4-47.15-3.6-2.22-.73-4.12-1.02-5.41-2.79-1.28-1.75-.26-4.13-.09-6.7.54-8.21-1.19-15.91,1.57-23.65,3.45-.57,7.27-.6,10.69,0,2.23,7.4,4.32,14.74,9.94,20.35,6.05,6.04,17.13,7.64,24.2,3.53,5.03-2.92,6.54-7.5,6.55-12.21.01-5.15-2.95-9-8.35-11.51l-27.3-12.7c-12.89-7.67-16.97-22.86-12.63-37.09,8.17-26.75,46.85-30.41,73.06-17.3l-.21,13.9-1.43,11.48c-.36,2.88-9.47,3.92-10.59,1.25l-5.66-13.48c-5.75-8.9-17.78-11.04-25.59-4.07-5.22,4.66-5.14,11.47-.25,16.2,9.93,9.6,33.39,10.61,43.54,27.64,5.89,9.87,5.3,21.56.17,32.47-4.05,8.61-13.49,15.34-25.06,18.28Z"/>
    <path class="e" d="M354.25,366.91c6.78-1.79,12.11-4.38,16.97-9.18,2.17,1.85,4.98,4.04,5.76,6.31,1.28,3.7-3.09,4.96-4.3,6.55-9.28,12.11-23.03,16.81-38.08,17.56-22.41,1.12-42.07-11.31-49.08-32.83-7.61-23.39-2.72-50.08,16.24-66.64,18.86-16.47,53.17-18.97,72.81-2.08-.49,7.33,2.06,15.44-1.59,22.44-2.96,5.67-14.79,6.72-19.57,2.52-6.47-5.67-.87-22.35-12.19-23.26-22.04-1.77-28.29,33.18-21.71,58.13,4.11,15.61,18.4,24.79,34.74,20.49Z"/>
    <path class="d" d="M815,321.44c-1.02,5.83-1.03,11.83-.03,17.66-.02,9.51,4.18,20.43,13.35,25.36,12.5,6.72,26.76,2.49,37.25-6.38,2.56,1.72,5,3.71,6.54,7.75-17.02,22.3-47.78,29.56-72.2,14.36-25.29-15.73-27.56-61.45-3.66-87.71,18.01-19.8,49.41-22.86,71.45-9.35,8.09,4.95,5.8,22.89,1.19,27.22-4.32,4.05-13.66,4.4-18.25.72-7.57-6.08.13-23.29-13.4-22.74-15.15.61-22.2,17.93-22.23,33.11Z"/>
    <path class="h" d="M714.85,374.15c4.18-.66,6.48-2.05,7.96-3.76,2.26-2.62,1.72-5.61,2-8.67l1.39-15.12,1.14-17.68c.72-11.12,2.01-21.94.58-33l-9.89-4.41c-2.21-.99-.85-7.85,1.07-9.34,3.51-2.72,8.84-1.54,12.86-2.27l24.7-4.52c2.08-.38,7.64-.18,6.91,3.33-1.6,7.72-.95,14.98-1.59,22.71l-1.24,15.08-1.23,22.62-1.22,21.23c-.19,3.32-2.13,6.15.27,9.34,1.91,2.54,4.67,3.72,9.1,4.69,3.55.77,2.97,9.76-.23,10.88l-55.18-.27c-2.95-1.21-1.5-10.21,2.6-10.86Z"/>
    <path class="n" d="M733.59,256.68c-4.38-5.96-3.69-15.94.04-21.13,5.11-7.11,13.1-9.59,20.8-7.37,6.83,1.97,12.9,8.34,12.66,16.7-.22,7.63-5.05,15.29-12.49,17.26-7.19,1.91-16.18,1.1-21-5.46Z"/>
    <path class="l" d="M548.44,366.58l-.75-58.79c-.01-.9.96-1.49,1.34-1.37l-.59,60.15Z"/>
    <path class="i" d="M814.96,339.1c-1.95-4.32-1.95-13.37.03-17.66l-.03,17.66Z"/>
  </g>
</svg>